<svg width="140" height="26" viewBox="0 0 140 26" fill="none" xmlns="http://www.w3.org/2000/svg">
<g id="AmoPet">
<path d="M8.13719 25.3994H0.696289L9.0797 0.00112915H18.5048L26.8882 25.3994H19.4473L13.8915 6.99557H13.6931L8.13719 25.3994ZM6.74822 15.379H20.7371V20.538H6.74822V15.379Z" fill="white"/>
<path d="M29.4337 25.3994V6.35069H35.932V9.97193H36.1305C36.5273 8.78139 37.2053 7.83887 38.1643 7.14439C39.1234 6.44991 40.2643 6.10267 41.5871 6.10267C42.9265 6.10267 44.0798 6.45817 45.0471 7.16919C46.0145 7.87194 46.5973 8.80619 46.7957 9.97193H46.9942C47.3166 8.80619 48.0028 7.87194 49.0528 7.16919C50.1028 6.45817 51.3347 6.10267 52.7485 6.10267C54.5756 6.10267 56.0555 6.68967 57.1882 7.86368C58.3291 9.03769 58.8996 10.6003 58.8996 12.5514V25.3994H52.054V14.2877C52.054 13.4526 51.8432 12.7995 51.4215 12.3282C50.9999 11.8487 50.4335 11.6089 49.7225 11.6089C49.0197 11.6089 48.4617 11.8487 48.0483 12.3282C47.6432 12.7995 47.4406 13.4526 47.4406 14.2877V25.3994H40.8926V14.2877C40.8926 13.4526 40.6818 12.7995 40.2602 12.3282C39.8385 11.8487 39.2722 11.6089 38.5612 11.6089C38.0899 11.6089 37.6848 11.7164 37.3458 11.9314C37.0068 12.1463 36.7423 12.4564 36.5521 12.8615C36.3702 13.2583 36.2793 13.7337 36.2793 14.2877V25.3994H29.4337Z" fill="white"/>
<path d="M71.453 25.7466C69.3861 25.7466 67.6168 25.3374 66.1452 24.5189C64.6735 23.6921 63.545 22.5429 62.7596 21.0713C61.9741 19.5914 61.5814 17.8758 61.5814 15.9246C61.5814 13.9735 61.9741 12.2621 62.7596 10.7904C63.545 9.31052 64.6735 8.16131 66.1452 7.34281C67.6168 6.51605 69.3861 6.10267 71.453 6.10267C73.5199 6.10267 75.2892 6.51605 76.7608 7.34281C78.2325 8.16131 79.361 9.31052 80.1465 10.7904C80.9319 12.2621 81.3246 13.9735 81.3246 15.9246C81.3246 17.8758 80.9319 19.5914 80.1465 21.0713C79.361 22.5429 78.2325 23.6921 76.7608 24.5189C75.2892 25.3374 73.5199 25.7466 71.453 25.7466ZM71.5026 20.6868C72.0814 20.6868 72.5816 20.4925 73.0032 20.104C73.4249 19.7154 73.7514 19.1614 73.9829 18.4422C74.2144 17.7229 74.3302 16.8672 74.3302 15.875C74.3302 14.8747 74.2144 14.019 73.9829 13.3079C73.7514 12.5886 73.4249 12.0347 73.0032 11.6461C72.5816 11.2576 72.0814 11.0633 71.5026 11.0633C70.8908 11.0633 70.3658 11.2576 69.9276 11.6461C69.4894 12.0347 69.1546 12.5886 68.9231 13.3079C68.6916 14.019 68.5759 14.8747 68.5759 15.875C68.5759 16.8672 68.6916 17.7229 68.9231 18.4422C69.1546 19.1614 69.4894 19.7154 69.9276 20.104C70.3658 20.4925 70.8908 20.6868 71.5026 20.6868Z" fill="white"/>
<path d="M84.0033 25.3994V0.00112915H94.9662C96.8513 0.00112915 98.5007 0.373174 99.9144 1.11726C101.328 1.86135 102.428 2.90721 103.213 4.25484C103.999 5.60247 104.391 7.17746 104.391 8.97981C104.391 10.7987 103.986 12.3737 103.176 13.7048C102.374 15.0359 101.246 16.0611 99.7904 16.7804C98.3436 17.4996 96.6529 17.8593 94.7182 17.8593H88.1702V12.5018H93.3292C94.1395 12.5018 94.8298 12.3613 95.4003 12.0802C95.979 11.7908 96.4214 11.3816 96.7273 10.8524C97.0414 10.3233 97.1985 9.6991 97.1985 8.97981C97.1985 8.25226 97.0414 7.63218 96.7273 7.11959C96.4214 6.59872 95.979 6.20188 95.4003 5.92904C94.8298 5.64794 94.1395 5.50739 93.3292 5.50739H90.8986V25.3994H84.0033Z" fill="white"/>
<path d="M115.739 25.7466C113.705 25.7466 111.952 25.3581 110.481 24.5809C109.017 23.7955 107.889 22.6711 107.095 21.2077C106.309 19.736 105.917 17.975 105.917 15.9246C105.917 13.9569 106.314 12.2373 107.107 10.7656C107.901 9.29398 109.021 8.14891 110.468 7.33041C111.915 6.51191 113.622 6.10267 115.59 6.10267C117.029 6.10267 118.331 6.32589 119.496 6.77235C120.662 7.2188 121.658 7.86781 122.485 8.71938C123.312 9.56268 123.949 10.5879 124.395 11.795C124.841 13.002 125.065 14.3621 125.065 15.875V17.4624H108.05V13.6924H118.765C118.756 13.1467 118.616 12.6672 118.343 12.2538C118.079 11.8322 117.719 11.5056 117.264 11.2741C116.818 11.0343 116.309 10.9144 115.739 10.9144C115.185 10.9144 114.676 11.0343 114.213 11.2741C113.75 11.5056 113.378 11.828 113.097 12.2414C112.824 12.6548 112.68 13.1384 112.663 13.6924V17.7601C112.663 18.3719 112.791 18.9175 113.048 19.3971C113.304 19.8766 113.672 20.2528 114.151 20.5256C114.631 20.7984 115.21 20.9349 115.888 20.9349C116.359 20.9349 116.789 20.8687 117.177 20.7364C117.574 20.6041 117.913 20.414 118.194 20.166C118.475 19.9097 118.682 19.6038 118.814 19.2482H125.065C124.85 20.5711 124.341 21.7203 123.539 22.6959C122.737 23.6632 121.675 24.4155 120.352 24.9529C119.038 25.4821 117.5 25.7466 115.739 25.7466Z" fill="white"/>
<path d="M139.218 6.35069V11.3113H126.668V6.35069H139.218ZM129.098 1.78694H135.944V19.2731C135.944 19.5376 135.989 19.7608 136.08 19.9427C136.171 20.1164 136.312 20.2486 136.502 20.3396C136.692 20.4223 136.936 20.4636 137.234 20.4636C137.44 20.4636 137.68 20.4388 137.953 20.3892C138.234 20.3396 138.441 20.2982 138.573 20.2652L139.565 25.077C139.259 25.1679 138.821 25.2795 138.251 25.4118C137.688 25.5441 137.019 25.6309 136.242 25.6722C134.671 25.7549 133.352 25.5937 132.285 25.1886C131.219 24.7752 130.417 24.1262 129.88 23.2415C129.342 22.3569 129.082 21.249 129.098 19.9179V1.78694Z" fill="white"/>
</g>
</svg>
