<svg width="67" height="67" viewBox="0 0 67 67" fill="none" xmlns="http://www.w3.org/2000/svg">
<g id="bi:heart-fill" clip-path="url(#clip0_40_332)">
<path id="Subtract" fill-rule="evenodd" clip-rule="evenodd" d="M33.7414 5.44927C52.1461 -13.4696 98.1619 19.6364 33.7414 62.2059C-30.679 19.6405 15.3368 -13.4696 33.7414 5.44927ZM43.006 17.2831C43.006 20.0624 41.1531 24.4629 38.1422 24.4629C35.8261 24.4629 34.6681 21.6836 34.6681 19.3675C34.6681 16.5882 36.5209 12.1877 39.5318 12.1877C41.8479 12.1877 43.006 14.967 43.006 17.2831ZM32.8152 19.3675C32.8152 21.6836 31.6571 24.4629 29.341 24.4629C26.0985 24.4629 24.2456 20.0624 24.4772 17.0514C24.4772 14.7354 25.6353 11.956 27.9514 11.956C30.9623 11.956 32.8152 16.3566 32.8152 19.3675ZM41.3847 29.3267C41.3847 26.3158 43.4692 22.1469 46.4801 22.1469C48.333 22.1469 49.4911 24.2313 49.4911 26.3158C49.4911 29.3267 47.4066 33.4957 44.3956 33.4957C42.3112 33.4957 41.3847 31.4112 41.3847 29.3267ZM21.2347 22.1469C24.014 22.1469 26.3301 26.3158 26.3301 29.3267C26.3301 31.4112 25.4037 33.4957 23.3192 33.4957C20.5399 33.4957 18.2238 29.3267 18.2238 26.3158C18.2238 24.2313 19.1502 22.1469 21.2347 22.1469ZM22.856 41.3704C22.856 36.275 29.1094 28.8635 33.7416 28.8635C38.3738 28.8635 44.6273 36.275 44.6273 41.3704C44.6273 43.9181 42.5428 44.3814 40.6899 44.3814C39.3857 44.3814 38.2029 43.8958 37.0483 43.4218C35.9474 42.9699 34.8721 42.5285 33.7416 42.5285C32.4955 42.5285 31.3601 42.9718 30.2001 43.4247C28.9885 43.8978 27.75 44.3814 26.3301 44.3814C24.4772 44.3814 22.856 43.6865 22.856 41.3704Z" fill="white"/>
</g>
<defs>
<clipPath id="clip0_40_332">
<rect width="66.353" height="66.353" fill="white" transform="translate(0.565125)"/>
</clipPath>
</defs>
</svg>
