<svg width="227" height="83" viewBox="0 0 227 83" fill="none" xmlns="http://www.w3.org/2000/svg">
<g id="Group 123" filter="url(#filter0_d_40_318)">
<g id="Group 1">
<path id="Vector" d="M25.575 11L25.9689 43.6408C25.9689 50.324 31.466 55.8237 38.1496 55.8237C44.8331 55.8237 50.3302 50.3272 50.3302 43.6408C50.3302 36.9955 44.9106 31.5243 38.2761 31.4578" stroke="white" stroke-width="11" stroke-miterlimit="10"/>
<path id="Vector_2" d="M38.4959 20.4939C51.1607 20.6236 61.5093 31.0821 61.5061 43.7525C61.5061 56.5083 51.0056 67.0016 38.2491 67C25.4926 66.9984 15 56.4941 15 43.7382" stroke="white" stroke-width="8" stroke-miterlimit="10"/>
</g>
<path id="Vector_3" d="M88.639 28.8929C87.204 28.8913 85.7831 29.1752 84.459 29.7282L84.4548 29.73L84.4548 29.73C83.1811 30.2483 82.0984 31.1469 81.3545 32.3032L81.2069 32.5327H80.934H80.8407H80.3407V32.0327V21.4704C80.3407 21.1446 80.2112 20.8319 79.9807 20.6013C79.7501 20.3709 79.4373 20.2414 79.1113 20.2414H75.8533C75.5272 20.2414 75.2147 20.3709 74.984 20.6013C74.984 20.6014 74.984 20.6014 74.9839 20.6014M88.639 28.8929L74.9839 20.6014M88.639 28.8929C89.8667 28.8984 91.0797 29.16 92.2006 29.6608C93.3215 30.1617 94.3258 30.891 95.1489 31.8021L95.1489 31.8021L95.1527 31.8062C96.0607 32.7887 96.8103 34.0596 97.3921 35.634C97.9661 37.1875 98.2601 39.0561 98.259 41.2513V41.2516C98.259 43.4469 97.9652 45.3157 97.392 46.8693C96.8112 48.4436 96.0618 49.715 95.1528 50.6984L95.1527 50.6984L95.149 50.7025C94.3258 51.6133 93.3215 52.3423 92.2003 52.8429L92.2003 52.8429C91.0796 53.3436 89.8666 53.6049 88.6391 53.6102C86.8944 53.6101 85.3519 53.3345 84.0033 52.7942L84.0033 52.7942L83.998 52.7921C82.7244 52.2988 81.6748 51.3576 81.0459 50.1453L80.9059 49.8756H80.602H80.5072H80.0072V50.3756V51.7664V51.7668C80.0073 51.9279 79.9757 52.0878 79.9141 52.2368C79.8525 52.3859 79.762 52.5214 79.648 52.6355C79.5339 52.7496 79.3986 52.8401 79.2495 52.9019C79.1004 52.9637 78.9407 52.9954 78.7794 52.9954H75.8533C75.5272 52.9954 75.2146 52.8659 74.9839 52.6354M88.639 28.8929L74.9839 52.6354M74.9839 20.6014C74.7535 20.832 74.624 21.1447 74.624 21.4704V51.7664C74.624 52.0921 74.7534 52.4048 74.9839 52.6354M74.9839 20.6014L74.9839 52.6354M98.759 41.2516C98.7601 39.0136 98.4607 37.0834 97.8611 35.4607C97.2615 33.8381 96.4811 32.5068 95.5199 31.4669C94.6502 30.5042 93.589 29.7336 92.4045 29.2043C91.2199 28.675 89.9379 28.3986 88.6403 28.3929L98.759 41.2516ZM98.759 41.2516C98.759 43.4895 98.4597 45.4197 97.8611 47.0424M98.759 41.2516L97.8611 47.0424M97.8611 47.0424C97.2624 48.6651 96.4822 49.9968 95.5199 51.0378L97.8611 47.0424ZM91.0956 35.5447C90.6031 34.7771 89.9405 34.1329 89.1592 33.6622L91.715 44.2292C91.9368 43.2682 92.0477 42.2852 92.0454 41.299L92.5454 41.3007C92.5454 41.3002 92.5454 41.2997 92.5454 41.2992C92.5482 40.4678 92.4747 39.6384 92.3264 38.8214H92.3378L92.2031 38.2132C91.9934 37.2661 91.6187 36.363 91.0961 35.5455L91.0956 35.5447ZM91.096 47.0052C91.6184 46.1885 91.9931 45.2861 92.2027 44.3394L89.1592 33.6622C88.3586 33.1798 87.4077 32.9538 86.3298 32.9582C85.3497 32.9337 84.3812 33.1742 83.5265 33.6546L83.5265 33.6545L83.5184 33.6593C82.725 34.125 82.052 34.7706 81.5538 35.544L81.5529 35.5455C81.0306 36.3625 80.6561 37.2649 80.4462 38.2114C80.2145 39.2244 80.0996 40.2604 80.1036 41.2994C80.1013 42.3225 80.2162 43.3425 80.4463 44.3395C80.6559 45.286 81.0304 46.1885 81.553 47.0052L81.5537 47.0063C82.0517 47.7804 82.7247 48.4265 83.5182 48.8928L83.5182 48.8928L83.5268 48.8977C84.382 49.3776 85.3507 49.618 86.3309 49.5938C87.4067 49.593 88.3561 49.3672 89.1566 48.8915L89.1594 48.8898C89.9409 48.4186 90.6034 47.7738 91.0958 47.0056L91.096 47.0052Z" fill="white" stroke="white"/>
<path id="Vector_4" d="M109.111 30.2533C109.761 29.8234 110.468 29.4847 111.21 29.2468C111.954 29.0102 112.731 28.8908 113.511 28.8926C113.839 28.8986 114.164 28.9387 114.482 29.0119V34.2832C114.299 34.2584 114.104 34.2362 113.898 34.2164C113.457 34.1687 113.015 34.1446 112.571 34.1443H112.571C111.289 34.1443 110.171 34.3569 109.236 34.8059C108.348 35.2215 107.577 35.8515 106.993 36.639L106.993 36.639L106.989 36.6451C106.415 37.4437 106.01 38.3514 105.8 39.3121C105.564 40.3563 105.448 41.424 105.456 42.4946V51.7691C105.456 52.0977 105.325 52.4129 105.093 52.6453C104.861 52.8777 104.545 53.0083 104.217 53.0083H100.979C100.65 53.0083 100.335 52.8777 100.103 52.6453C99.8703 52.4129 99.7397 52.0977 99.7397 51.7691V30.8006C99.7397 30.472 99.8703 30.1568 100.103 29.9244C100.335 29.692 100.65 29.5614 100.979 29.5614L100.98 29.5614L103.875 29.5551C103.875 29.5551 103.876 29.5551 103.876 29.5551C104.204 29.5552 104.519 29.6857 104.752 29.9181L105.105 29.5645L104.752 29.9181C104.984 30.1505 105.114 30.4657 105.114 30.7943V33.5897V34.0897H105.614H105.709H106.043L106.171 33.7821C106.469 33.0668 106.873 32.4005 107.369 31.8055L107.37 31.8049C107.869 31.2044 108.455 30.682 109.109 30.2546L109.111 30.2533Z" fill="white" stroke="white"/>
<path id="Vector_5" d="M115.371 36.3017L115.372 36.3018C115.381 36.306 115.392 36.3084 115.404 36.3085H120.982C120.998 36.3071 121.014 36.3005 121.027 36.2893L121.027 36.289C121.041 36.2769 121.05 36.2606 121.052 36.243L121.053 36.2365L121.054 36.2365C121.253 35.0855 121.721 34.1742 122.511 33.583C123.382 32.9289 124.541 32.6313 125.93 32.6311C126.516 32.6284 127.101 32.6696 127.681 32.7547C128.229 32.8311 128.757 33.0135 129.235 33.2916L129.241 33.2956L129.241 33.2957C129.716 33.5819 130.105 33.9891 130.37 34.4754C130.661 35.0001 130.785 35.6652 130.786 36.431C130.819 37.237 130.574 37.9267 129.988 38.4084L129.981 38.4142L129.974 38.4197C129.387 38.8679 128.708 39.1813 127.985 39.3378C127.108 39.5474 126.217 39.6929 125.318 39.7732C124.351 39.867 123.369 39.9917 122.369 40.1471L122.369 40.1472C121.374 40.3004 120.389 40.5076 119.418 40.7681L119.416 40.7686C118.53 41.0026 117.691 41.3865 116.935 41.9035C116.207 42.4146 115.611 43.091 115.195 43.8771L115.192 43.882L115.192 43.8819C114.756 44.686 114.521 45.7396 114.521 47.071C114.521 48.2775 114.723 49.2899 115.107 50.1231L115.108 50.1257C115.478 50.9386 116.036 51.652 116.735 52.2076C117.468 52.7797 118.308 53.1994 119.205 53.4421L119.206 53.4424C120.225 53.7206 121.277 53.8577 122.333 53.8498L122.336 53.8498C123.794 53.846 125.243 53.6255 126.636 53.1957L126.639 53.1948C127.996 52.7844 129.225 52.0322 130.207 51.0102L130.985 50.2011L131.066 51.3205C131.113 51.9667 131.228 52.6058 131.409 53.2272H135.194C135.41 53.2272 135.623 53.1814 135.82 53.0928L135.82 53.0927C136.016 53.0039 136.192 52.8746 136.334 52.7131L136.334 52.7128C136.477 52.5514 136.583 52.3614 136.647 52.1554C136.71 51.9496 136.729 51.7327 136.702 51.519L136.702 51.5169C136.571 50.4479 136.506 49.3719 136.508 48.2949V35.5806C136.508 34.1728 136.194 33.0979 135.613 32.3094C134.996 31.4749 134.183 30.8055 133.245 30.3607L133.245 30.3604C132.202 29.8643 131.088 29.5363 129.942 29.3887L129.938 29.3881L129.938 29.3881C128.72 29.2199 127.492 29.1349 126.263 29.1336C124.938 29.1347 123.617 29.2664 122.318 29.5268L122.313 29.5278L122.313 29.5277C121.096 29.7597 119.926 30.195 118.853 30.8152C117.857 31.3988 117.007 32.2029 116.37 33.1654L116.369 33.1668C115.824 33.9846 115.47 34.9984 115.325 36.2259C115.324 36.2356 115.326 36.2454 115.329 36.2548C115.332 36.2655 115.338 36.275 115.345 36.2827L115.371 36.3017ZM115.371 36.3017C115.362 36.2974 115.353 36.2911 115.345 36.2828L115.371 36.3017ZM124.845 50.3965C126.209 50.3965 127.336 50.1712 128.172 49.6653C128.909 49.2437 129.524 48.6391 129.958 47.9098L129.958 47.9099L129.962 47.903C130.325 47.2718 130.561 46.5759 130.657 45.8544C130.727 45.3336 130.768 44.809 130.778 44.2835L130.778 44.2835L130.778 44.2751L130.784 41.7735L130.787 40.6831L124.845 49.8965M124.845 50.3965V49.8965M124.845 50.3965C124.845 50.3965 124.845 50.3965 124.846 50.3965L124.845 49.8965M124.845 50.3965C124.292 50.3976 123.74 50.3475 123.196 50.2465M124.845 49.8965C124.321 49.8976 123.799 49.8501 123.284 49.7543M123.196 50.2465C123.197 50.2466 123.198 50.2468 123.199 50.247L123.284 49.7543M123.196 50.2465C122.667 50.1545 122.16 49.9642 121.701 49.6854L121.695 49.6819L121.695 49.6818C121.24 49.3966 120.869 48.9956 120.619 48.5198L120.615 48.5122L120.615 48.5121C120.346 47.9748 120.213 47.3791 120.23 46.7783M123.196 50.2465C123.195 50.2463 123.194 50.2461 123.193 50.2459L123.284 49.7543M123.284 49.7543L120.23 46.7783M120.23 46.7783C120.23 46.7841 120.23 46.7899 120.231 46.7958L120.73 46.777M120.23 46.7783L121.961 49.2581C121.58 49.0199 121.27 48.6851 121.062 48.2878C120.827 47.8197 120.713 47.3004 120.73 46.777M120.23 46.7783C120.23 46.7724 120.23 46.7666 120.231 46.7607L120.73 46.777M120.23 46.7783L121.062 45.2157M120.73 46.777C120.71 46.2372 120.824 45.7007 121.062 45.2157M130.284 41.7722L130.61 42.1519C130.505 42.2413 130.396 42.3243 130.283 42.4006L130.284 41.7722ZM130.284 41.7722L129.784 41.771L129.784 42.1208C129.961 42.0219 130.129 41.9052 130.284 41.7722ZM121.062 45.2157C121.274 44.8159 121.573 44.4685 121.937 44.1996L121.062 45.2157ZM123.213 43.5674L123.066 43.0896C123.065 43.0899 123.064 43.0902 123.063 43.0905C123.062 43.0907 123.061 43.091 123.06 43.0913L123.213 43.5674Z" fill="white" stroke="white"/>
<path id="Vector_6" d="M138.484 29.9471L138.949 30.1329C138.971 30.0769 139.004 30.0266 139.045 29.9845L139.045 29.9845C139.085 29.9426 139.133 29.9099 139.185 29.8879L139.186 29.8878C139.238 29.8655 139.294 29.8542 139.35 29.8542H144.084V29.8542L144.087 29.8542C144.144 29.8538 144.2 29.8649 144.253 29.8869C144.305 29.9088 144.353 29.9414 144.395 29.9835C144.436 30.0256 144.469 30.076 144.491 30.1317C144.514 30.1882 144.525 30.2486 144.525 30.3093L144.525 30.3093V30.3136V52.9176C144.525 53.0402 144.477 53.1561 144.394 53.24C144.312 53.3238 144.202 53.369 144.09 53.369H139.35C139.238 53.369 139.128 53.3238 139.046 53.24C138.963 53.1561 138.915 53.0402 138.915 52.9176V30.3136H138.915L138.915 30.3093C138.915 30.2488 138.926 30.1886 138.949 30.1326L138.484 29.9471ZM138.484 29.9471C138.438 30.0634 138.414 30.188 138.415 30.3136L144.955 29.9456C144.908 29.8288 144.839 29.7227 144.752 29.6335C144.664 29.5442 144.56 29.4735 144.445 29.4256C144.331 29.3777 144.208 29.3534 144.084 29.3542H139.35C139.227 29.3542 139.105 29.3791 138.991 29.4275C138.877 29.4757 138.773 29.5466 138.686 29.6357C138.6 29.725 138.531 29.8307 138.484 29.9471Z" fill="white" stroke="white"/>
<path id="Vector_7" d="M151.217 29.796H151.216L147.136 29.7912C147.136 29.7912 147.136 29.7912 147.136 29.7912C147.05 29.7913 146.966 29.8081 146.887 29.8407L146.887 29.8407C146.808 29.8734 146.737 29.9214 146.676 29.9818L146.676 29.9821C146.616 30.0422 146.568 30.1139 146.535 30.1929L146.073 30.0018M151.217 29.796L162.219 39.9347C162.219 37.9176 161.902 36.4127 161.27 35.42C160.637 34.4272 159.517 33.9309 157.909 33.9309C156.08 33.9309 154.755 34.4747 153.935 35.5622C153.114 36.6498 152.704 38.4413 152.704 40.9369V52.6001C152.704 52.9048 152.583 53.1971 152.367 53.4128L152.014 53.0589M151.217 29.796C151.39 29.796 151.555 29.8646 151.678 29.9868L152.031 29.633L151.678 29.9866C151.8 30.1089 151.868 30.2743 151.868 30.4468V32.701V33.201H152.368H152.509H152.792L152.938 32.9586C153.746 31.6142 154.78 30.6541 156.037 30.0557L156.037 30.0557L156.042 30.0536C157.271 29.4536 158.621 29.1391 159.989 29.1336M151.217 29.796L159.989 29.1336M146.073 30.0018L146.535 30.1925C146.503 30.2714 146.486 30.3561 146.486 30.4415L146.486 30.442L146.486 52.6001V52.6006C146.486 52.6859 146.503 52.7703 146.535 52.849C146.568 52.9277 146.616 52.9992 146.676 53.0595C146.736 53.1197 146.808 53.1675 146.887 53.2001C146.966 53.2327 147.05 53.2494 147.136 53.2493H147.136H151.554C151.726 53.2493 151.892 53.1808 152.014 53.059C152.014 53.059 152.014 53.0589 152.014 53.0589M146.073 30.0018C146.131 29.8622 146.216 29.7353 146.323 29.6284L145.986 30.442M146.073 30.0018C146.016 30.1414 145.986 30.2911 145.986 30.442M152.014 53.0589C152.136 52.937 152.204 52.7719 152.204 52.6001V40.9369C152.204 38.4116 152.614 36.4823 153.536 35.2611C154.481 34.0082 155.981 33.4309 157.909 33.4309C159.618 33.4309 160.935 33.9645 161.691 35.1512C162.4 36.2631 162.719 37.8825 162.719 39.9347V52.5858V52.5864C162.719 52.6716 162.735 52.756 162.768 52.8348L162.768 52.8351C162.8 52.9131 162.848 52.9845 162.908 53.045M152.014 53.0589L162.908 53.045M145.986 30.442V52.6001C145.986 52.751 146.016 52.9006 146.073 53.0402C146.131 53.1796 146.216 53.3064 146.323 53.4132L145.986 30.442ZM162.908 53.045L162.555 53.399M162.908 53.045L162.306 53.0259C162.364 53.1654 162.448 53.2921 162.555 53.399M162.908 53.045C162.908 53.0452 162.909 53.0454 162.909 53.0456M162.908 53.045C162.908 53.0452 162.909 53.0454 162.909 53.0456M162.555 53.399C162.662 53.5057 162.789 53.5903 162.929 53.648M162.555 53.399L162.909 53.0456M162.909 53.0456L163.12 53.1859M163.12 53.1859C163.12 53.1859 163.119 53.1859 163.119 53.1858L162.929 53.648M163.12 53.1859L162.929 53.648M163.12 53.1859C163.198 53.2185 163.283 53.2352 163.368 53.2351H163.369H167.786H167.787C167.872 53.2352 167.957 53.2184 168.037 53.1858L168.227 53.6481L168.036 53.186C168.115 53.1533 168.187 53.1054 168.247 53.0453L168.247 53.045C168.308 52.9847 168.356 52.913 168.389 52.8343L168.389 52.8342C168.421 52.7557 168.438 52.6714 168.438 52.5858V38.6985V38.6942H168.438C168.45 37.3402 168.318 35.9887 168.046 34.662L168.046 34.6586C167.834 33.5899 167.39 32.5809 166.743 31.7035M162.929 53.648C163.068 53.7057 163.218 53.7352 163.369 53.7351L168.601 53.399C168.708 53.2923 168.793 53.1655 168.85 53.0259C168.908 52.8865 168.938 52.737 168.938 52.5858V38.6985C168.95 37.3093 168.815 35.9227 168.536 34.5616C168.31 33.4179 167.834 32.3382 167.141 31.4M166.743 31.7035C166.745 31.7056 166.747 31.7077 166.748 31.7098L167.141 31.4M166.743 31.7035C166.742 31.7013 166.74 31.6992 166.739 31.697L167.141 31.4M166.743 31.7035C166.085 30.8711 165.219 30.2257 164.232 29.8314L164.224 29.8279L164.224 29.8278C163.145 29.3734 161.741 29.1337 159.989 29.1336M167.141 31.4C166.427 30.4958 165.488 29.7949 164.418 29.3671L159.99 29.1336C159.99 29.1336 159.989 29.1336 159.989 29.1336" fill="white" stroke="white"/>
<path id="Vector_8" d="M175.508 33.4399V32.9399V31.155C175.508 30.5059 175.022 30.0362 174.49 30.0362H171.537C171.005 30.0362 170.52 30.5052 170.52 31.155V52.3707C170.52 53.0205 171.005 53.4895 171.537 53.4895H174.8C175.333 53.4895 175.819 53.0198 175.819 52.3707V41.1751V41.1748H176.319C176.317 38.6844 176.702 36.8953 177.471 35.8076C178.239 34.72 179.482 34.1761 181.197 34.1761C182.702 34.1761 183.752 34.673 184.344 35.6669C184.937 36.6608 185.233 38.1663 185.233 40.1835V52.3643C185.233 53.2591 185.912 53.9832 186.75 53.9832H190.012C190.85 53.9832 191.53 53.2591 191.53 52.3643L175.508 33.4399ZM175.508 33.4399H176.008H176.139H176.432L176.575 33.1853C177.332 31.8411 178.3 30.8849 179.472 30.2886L179.472 30.2886L179.477 30.2861C180.611 29.6942 181.869 29.3813 183.149 29.3738M175.508 33.4399L183.149 29.3738M183.149 29.3738C184.797 29.3739 186.101 29.6131 187.088 30.0624L187.088 30.0625L187.096 30.0661C188.03 30.4707 188.838 31.1163 189.438 31.9363L183.149 29.3738Z" fill="white" stroke="white"/>
<path id="Vector_9" d="M209.338 30.0846L204.255 46.0268L204.144 46.3749H203.779H203.684H203.323L203.209 46.0317L197.943 30.0788C197.943 30.0787 197.943 30.0786 197.943 30.0786C197.898 29.9425 197.813 29.8261 197.7 29.744C197.585 29.6604 197.448 29.6153 197.309 29.614H192.71H192.708V29.614C192.6 29.6135 192.493 29.6392 192.395 29.6897C192.299 29.7401 192.215 29.8129 192.153 29.9013C192.091 29.9911 192.051 30.0948 192.036 30.2037C192.023 30.3107 192.035 30.4208 192.073 30.5245C192.073 30.525 192.073 30.5256 192.073 30.5261L200.039 51.8884C200.252 52.4293 200.358 53.0049 200.355 53.5841C200.36 54.4012 200.106 55.1992 199.629 55.8629C199.104 56.6035 198.304 57.0045 197.314 57.1112L197.299 57.1128L197.284 57.1135C196.598 57.1455 195.91 57.1291 195.226 57.0644L209.338 30.0846ZM209.338 30.0846C209.338 30.0846 209.338 30.0846 209.338 30.0845C209.382 29.9487 209.468 29.829 209.584 29.7439C209.699 29.6596 209.838 29.6141 209.981 29.614M209.338 30.0846L209.981 29.614M193.836 56.9337L195.226 57.0644L193.836 56.9337ZM193.836 56.9337V60.8376C193.837 61.0109 193.902 61.1755 194.017 61.3004C194.133 61.4259 194.291 61.5037 194.461 61.5185C194.786 61.5438 195.114 61.569 195.428 61.5909L195.428 61.591C196.091 61.6376 196.766 61.661 197.448 61.661L193.836 56.9337ZM209.981 29.614L214.386 29.614L214.388 29.614C214.496 29.6135 214.603 29.6392 214.701 29.6897C214.797 29.7401 214.881 29.8129 214.943 29.9013C215.005 29.9911 215.045 30.0948 215.06 30.2037C215.073 30.3109 215.061 30.4211 215.023 30.5249C215.023 30.5253 215.023 30.5257 215.023 30.5261L205.397 56.4463L205.396 56.449C204.694 58.3727 203.739 59.6887 202.565 60.4643C201.384 61.242 199.696 61.6598 197.448 61.661L209.981 29.614Z" fill="white" stroke="white"/>
<path id="Vector_10" d="M144.645 23.947C144.645 25.6038 143.327 26.9319 141.72 26.9319C140.113 26.9319 138.795 25.6038 138.795 23.947C138.795 22.2902 140.113 20.962 141.72 20.962C143.327 20.962 144.645 22.2902 144.645 23.947Z" fill="white" stroke="white"/>
<g id="Smart Solutions">
<mask id="path-11-outside-1_40_318" maskUnits="userSpaceOnUse" x="73.5564" y="57.7088" width="100" height="10" fill="black">
<rect fill="white" x="73.5564" y="57.7088" width="100" height="10"/>
<path d="M79.2308 64.6941C79.2308 64.4909 79.1969 64.3097 79.1292 64.1505C79.0615 63.9913 78.9497 63.849 78.7939 63.7237C78.6414 63.595 78.4348 63.4764 78.174 63.368C77.9166 63.2562 77.5948 63.1461 77.2086 63.0378C76.8394 62.9328 76.5058 62.8176 76.2077 62.6923C75.9096 62.5669 75.6539 62.423 75.4405 62.2604C75.2305 62.0978 75.0696 61.9081 74.9578 61.6913C74.846 61.4711 74.7901 61.2154 74.7901 60.9241C74.7901 60.6396 74.8511 60.3804 74.973 60.1467C75.095 59.913 75.266 59.7115 75.4862 59.5421C75.7098 59.3727 75.9723 59.2423 76.2737 59.1509C76.5786 59.0594 76.9122 59.0137 77.2747 59.0137C77.7929 59.0137 78.24 59.1119 78.616 59.3084C78.9954 59.5048 79.2884 59.7707 79.495 60.1061C79.705 60.438 79.81 60.8106 79.81 61.2239H79.1851C79.1851 60.9021 79.1089 60.6159 78.9565 60.3652C78.8074 60.1112 78.5906 59.913 78.3061 59.7707C78.025 59.6251 77.6811 59.5523 77.2747 59.5523C76.8682 59.5523 76.5261 59.6149 76.2483 59.7403C75.974 59.8622 75.7656 60.0265 75.6234 60.2331C75.4845 60.4363 75.4151 60.6633 75.4151 60.9139C75.4151 61.0901 75.4489 61.2527 75.5167 61.4017C75.5844 61.5474 75.6945 61.6845 75.8469 61.8133C76.0028 61.9386 76.2077 62.0571 76.4617 62.1689C76.7158 62.2773 77.0291 62.3806 77.4017 62.4789C77.7946 62.5872 78.1435 62.7075 78.4484 62.8396C78.7532 62.9717 79.0106 63.1241 79.2207 63.2969C79.4307 63.4662 79.5899 63.6644 79.6983 63.8913C79.8067 64.1183 79.8609 64.3825 79.8609 64.684C79.8609 64.9854 79.7965 65.2564 79.6678 65.4969C79.5424 65.734 79.3646 65.9356 79.1343 66.1015C78.9073 66.2675 78.638 66.3945 78.3264 66.4826C78.0182 66.5707 77.6811 66.6147 77.3153 66.6147C76.9868 66.6147 76.6599 66.5724 76.3347 66.4877C76.0095 66.403 75.7115 66.2726 75.4405 66.0965C75.1729 65.9169 74.9578 65.6866 74.7952 65.4055C74.636 65.1243 74.5564 64.789 74.5564 64.3994H75.1763C75.1763 64.7111 75.2389 64.9736 75.3643 65.187C75.4896 65.4004 75.6556 65.5731 75.8622 65.7052C76.0722 65.8373 76.3025 65.9339 76.5532 65.9948C76.8072 66.0524 77.0613 66.0812 77.3153 66.0812C77.7049 66.0812 78.0419 66.0236 78.3264 65.9085C78.6143 65.7933 78.8362 65.6324 78.992 65.4258C79.1512 65.2158 79.2308 64.9719 79.2308 64.6941Z"/>
<path d="M83.5173 62.1537V66.5131H82.9076V61.0156H83.4919L83.5173 62.1537ZM83.4055 63.4239L83.1108 63.2715C83.1311 62.9463 83.1921 62.6414 83.2937 62.3569C83.3987 62.0724 83.5444 61.8217 83.7307 61.6049C83.917 61.3882 84.1405 61.2188 84.4013 61.0969C84.6622 60.9749 84.9585 60.9139 85.2905 60.9139C85.5581 60.9139 85.8003 60.9512 86.0171 61.0257C86.2372 61.0969 86.4235 61.2103 86.576 61.3661C86.7318 61.5186 86.852 61.7184 86.9367 61.9657C87.0214 62.213 87.0637 62.5093 87.0637 62.8548V66.5131H86.4591V62.8752C86.4591 62.5093 86.4015 62.2231 86.2864 62.0165C86.1746 61.8099 86.0171 61.6625 85.8138 61.5745C85.614 61.4864 85.382 61.4424 85.1178 61.4424C84.8061 61.4424 84.5419 61.5067 84.3251 61.6354C84.1117 61.7608 83.9373 61.925 83.8018 62.1283C83.6697 62.3281 83.5715 62.5432 83.5071 62.7735C83.4427 63.0005 83.4089 63.2173 83.4055 63.4239ZM87.0587 62.9463L86.6522 62.9565C86.6691 62.6889 86.7301 62.4331 86.8351 62.1892C86.9435 61.9454 87.0908 61.7286 87.2771 61.5389C87.4634 61.3458 87.6853 61.1934 87.9427 61.0816C88.2035 60.9698 88.4965 60.9139 88.8217 60.9139C89.1063 60.9139 89.3603 60.9529 89.5839 61.0308C89.8074 61.1053 89.9954 61.2256 90.1478 61.3915C90.3037 61.5541 90.4222 61.7625 90.5035 62.0165C90.5848 62.2705 90.6254 62.5754 90.6254 62.9311V66.5131H90.0157V62.926C90.0157 62.5364 89.9582 62.235 89.843 62.0216C89.7312 61.8048 89.5754 61.6541 89.3755 61.5694C89.1757 61.4847 88.942 61.4424 88.6744 61.4424C88.4102 61.4457 88.1781 61.4949 87.9783 61.5897C87.7784 61.6812 87.6108 61.8031 87.4753 61.9555C87.3432 62.1046 87.2416 62.2655 87.1704 62.4382C87.1027 62.611 87.0654 62.7803 87.0587 62.9463Z"/>
<path d="M97.3863 65.5274V62.6923C97.3863 62.4314 97.3321 62.2062 97.2237 62.0165C97.1153 61.8268 96.9561 61.6812 96.7461 61.5795C96.5361 61.4779 96.277 61.4271 95.9687 61.4271C95.6842 61.4271 95.4301 61.4779 95.2066 61.5795C94.9864 61.6778 94.812 61.8116 94.6832 61.9809C94.5579 62.1469 94.4953 62.3315 94.4953 62.5347L93.8855 62.5297C93.8855 62.323 93.9364 62.1232 94.038 61.9301C94.1396 61.737 94.2836 61.5643 94.4699 61.4119C94.6562 61.2594 94.878 61.1392 95.1354 61.0511C95.3963 60.9597 95.6825 60.9139 95.9941 60.9139C96.387 60.9139 96.7325 60.98 97.0306 61.1121C97.3321 61.2442 97.5675 61.4424 97.7369 61.7066C97.9062 61.9708 97.9909 62.3027 97.9909 62.7024V65.3597C97.9909 65.5494 98.0045 65.7459 98.0316 65.9491C98.062 66.1523 98.1044 66.32 98.1586 66.4521V66.5131H97.5133C97.4727 66.3911 97.4405 66.2387 97.4168 66.0558C97.3964 65.8695 97.3863 65.6934 97.3863 65.5274ZM97.5286 63.3121L97.5387 63.7796H96.3447C96.0331 63.7796 95.7536 63.8084 95.5064 63.8659C95.2625 63.9201 95.0558 64.0014 94.8865 64.1098C94.7171 64.2148 94.5867 64.3419 94.4953 64.4909C94.4072 64.6399 94.3632 64.8093 94.3632 64.999C94.3632 65.1954 94.4123 65.375 94.5105 65.5376C94.6121 65.7001 94.7544 65.8306 94.9373 65.9288C95.1236 66.0236 95.3438 66.0711 95.5978 66.0711C95.9365 66.0711 96.2346 66.0084 96.492 65.8831C96.7529 65.7577 96.968 65.5934 97.1373 65.3902C97.3067 65.187 97.4202 64.9651 97.4777 64.7246L97.7419 65.0752C97.6979 65.2446 97.6166 65.419 97.4981 65.5985C97.3829 65.7747 97.2322 65.9406 97.0459 66.0965C96.8596 66.2489 96.6394 66.3742 96.3853 66.4724C96.1347 66.5673 95.8502 66.6147 95.5318 66.6147C95.1727 66.6147 94.8594 66.547 94.5918 66.4115C94.3276 66.276 94.121 66.0914 93.9719 65.8577C93.8263 65.6205 93.7534 65.353 93.7534 65.0549C93.7534 64.7839 93.811 64.5417 93.9262 64.3283C94.0414 64.1115 94.2073 63.9286 94.4241 63.7796C94.6443 63.6271 94.9085 63.512 95.2167 63.4341C95.5284 63.3528 95.8773 63.3121 96.2634 63.3121H97.5286Z"/>
<path d="M102.1 61.925V66.5131H101.495V61.0156H102.084L102.1 61.925ZM104.046 60.9749L104.03 61.5338C103.963 61.5236 103.896 61.5152 103.832 61.5084C103.768 61.5016 103.698 61.4982 103.624 61.4982C103.36 61.4982 103.128 61.5474 102.928 61.6456C102.731 61.7404 102.565 61.8742 102.43 62.047C102.294 62.2163 102.191 62.4162 102.12 62.6465C102.049 62.8735 102.008 63.1174 101.998 63.3782L101.774 63.4646C101.774 63.1055 101.812 62.7719 101.886 62.4636C101.961 62.1554 102.074 61.8861 102.227 61.6558C102.382 61.422 102.577 61.2408 102.811 61.1121C103.048 60.98 103.326 60.9139 103.644 60.9139C103.722 60.9139 103.798 60.9207 103.873 60.9343C103.951 60.9444 104.008 60.958 104.046 60.9749Z"/>
<path d="M109.206 61.0156V61.5135H106.452V61.0156H109.206ZM107.463 59.6031H108.068V65.1768C108.068 65.4309 108.102 65.6222 108.169 65.751C108.237 65.8797 108.325 65.966 108.434 66.0101C108.542 66.0541 108.659 66.0761 108.784 66.0761C108.876 66.0761 108.964 66.0711 109.048 66.0609C109.133 66.0473 109.209 66.0338 109.277 66.0202L109.302 66.5334C109.228 66.5571 109.131 66.5758 109.013 66.5893C108.894 66.6062 108.776 66.6147 108.657 66.6147C108.423 66.6147 108.217 66.5724 108.037 66.4877C107.858 66.3996 107.717 66.2506 107.616 66.0406C107.514 65.8272 107.463 65.5376 107.463 65.1717V59.6031Z"/>
<path d="M121.097 64.6941C121.097 64.4909 121.063 64.3097 120.995 64.1505C120.927 63.9913 120.815 63.849 120.66 63.7237C120.507 63.595 120.301 63.4764 120.04 63.368C119.782 63.2562 119.461 63.1461 119.074 63.0378C118.705 62.9328 118.372 62.8176 118.073 62.6923C117.775 62.5669 117.52 62.423 117.306 62.2604C117.096 62.0978 116.935 61.9081 116.824 61.6913C116.712 61.4711 116.656 61.2154 116.656 60.9241C116.656 60.6396 116.717 60.3804 116.839 60.1467C116.961 59.913 117.132 59.7115 117.352 59.5421C117.576 59.3727 117.838 59.2423 118.14 59.1509C118.444 59.0594 118.778 59.0137 119.14 59.0137C119.659 59.0137 120.106 59.1119 120.482 59.3084C120.861 59.5048 121.154 59.7707 121.361 60.1061C121.571 60.438 121.676 60.8106 121.676 61.2239H121.051C121.051 60.9021 120.975 60.6159 120.822 60.3652C120.673 60.1112 120.456 59.913 120.172 59.7707C119.891 59.6251 119.547 59.5523 119.14 59.5523C118.734 59.5523 118.392 59.6149 118.114 59.7403C117.84 59.8622 117.631 60.0265 117.489 60.2331C117.35 60.4363 117.281 60.6633 117.281 60.9139C117.281 61.0901 117.315 61.2527 117.382 61.4017C117.45 61.5474 117.56 61.6845 117.713 61.8133C117.869 61.9386 118.073 62.0571 118.328 62.1689C118.582 62.2773 118.895 62.3806 119.267 62.4789C119.66 62.5872 120.009 62.7075 120.314 62.8396C120.619 62.9717 120.876 63.1241 121.086 63.2969C121.296 63.4662 121.456 63.6644 121.564 63.8913C121.672 64.1183 121.727 64.3825 121.727 64.684C121.727 64.9854 121.662 65.2564 121.534 65.4969C121.408 65.734 121.23 65.9356 121 66.1015C120.773 66.2675 120.504 66.3945 120.192 66.4826C119.884 66.5707 119.547 66.6147 119.181 66.6147C118.853 66.6147 118.526 66.5724 118.2 66.4877C117.875 66.403 117.577 66.2726 117.306 66.0965C117.039 65.9169 116.824 65.6866 116.661 65.4055C116.502 65.1243 116.422 64.789 116.422 64.3994H117.042C117.042 64.7111 117.105 64.9736 117.23 65.187C117.355 65.4004 117.521 65.5731 117.728 65.7052C117.938 65.8373 118.168 65.9339 118.419 65.9948C118.673 66.0524 118.927 66.0812 119.181 66.0812C119.571 66.0812 119.908 66.0236 120.192 65.9085C120.48 65.7933 120.702 65.6324 120.858 65.4258C121.017 65.2158 121.097 64.9719 121.097 64.6941Z"/>
<path d="M124.474 63.8507V63.683C124.474 63.2833 124.531 62.9141 124.646 62.5754C124.761 62.2367 124.926 61.9437 125.139 61.6964C125.356 61.4491 125.615 61.2577 125.917 61.1223C126.218 60.9834 126.553 60.9139 126.923 60.9139C127.295 60.9139 127.632 60.9834 127.934 61.1223C128.235 61.2577 128.494 61.4491 128.711 61.6964C128.928 61.9437 129.094 62.2367 129.209 62.5754C129.324 62.9141 129.382 63.2833 129.382 63.683V63.8507C129.382 64.2504 129.324 64.6196 129.209 64.9583C129.094 65.2937 128.928 65.585 128.711 65.8322C128.498 66.0795 128.24 66.2726 127.939 66.4115C127.637 66.547 127.302 66.6147 126.933 66.6147C126.56 66.6147 126.223 66.547 125.922 66.4115C125.62 66.2726 125.361 66.0795 125.144 65.8322C124.927 65.585 124.761 65.2937 124.646 64.9583C124.531 64.6196 124.474 64.2504 124.474 63.8507ZM125.078 63.683V63.8507C125.078 64.1522 125.119 64.4384 125.2 64.7094C125.281 64.977 125.4 65.2158 125.556 65.4258C125.712 65.6324 125.905 65.795 126.135 65.9135C126.365 66.0321 126.631 66.0914 126.933 66.0914C127.231 66.0914 127.493 66.0321 127.72 65.9135C127.951 65.795 128.144 65.6324 128.299 65.4258C128.455 65.2158 128.572 64.977 128.65 64.7094C128.731 64.4384 128.772 64.1522 128.772 63.8507V63.683C128.772 63.385 128.731 63.1021 128.65 62.8345C128.572 62.5669 128.454 62.3281 128.294 62.1181C128.139 61.9081 127.946 61.7421 127.715 61.6202C127.485 61.4982 127.221 61.4373 126.923 61.4373C126.624 61.4373 126.36 61.4982 126.13 61.6202C125.903 61.7421 125.71 61.9081 125.551 62.1181C125.395 62.3281 125.276 62.5669 125.195 62.8345C125.117 63.1021 125.078 63.385 125.078 63.683Z"/>
<path d="M133.191 58.7088V66.5131H132.586V58.7088H133.191Z"/>
<path d="M140.246 65.2429V61.0156H140.856V66.5131H140.271L140.246 65.2429ZM140.358 64.2267L140.673 64.2165C140.673 64.562 140.632 64.8804 140.551 65.1717C140.47 65.463 140.343 65.7171 140.17 65.9339C139.997 66.1507 139.774 66.3183 139.499 66.4369C139.225 66.5554 138.895 66.6147 138.508 66.6147C138.241 66.6147 137.995 66.5774 137.772 66.5029C137.552 66.425 137.362 66.3031 137.203 66.1371C137.043 65.9711 136.92 65.756 136.832 65.4918C136.747 65.2276 136.705 64.9075 136.705 64.5315V61.0156H137.309V64.5417C137.309 64.8364 137.342 65.082 137.406 65.2784C137.474 65.4749 137.565 65.6324 137.68 65.751C137.799 65.8695 137.934 65.9542 138.087 66.005C138.239 66.0558 138.403 66.0812 138.58 66.0812C139.027 66.0812 139.379 65.9948 139.636 65.8221C139.897 65.6493 140.082 65.4224 140.19 65.1412C140.302 64.8567 140.358 64.5519 140.358 64.2267Z"/>
<path d="M146.397 61.0156V61.5135H143.643V61.0156H146.397ZM144.654 59.6031H145.259V65.1768C145.259 65.4309 145.293 65.6222 145.361 65.751C145.428 65.8797 145.517 65.966 145.625 66.0101C145.733 66.0541 145.85 66.0761 145.976 66.0761C146.067 66.0761 146.155 66.0711 146.24 66.0609C146.324 66.0473 146.401 66.0338 146.468 66.0202L146.494 66.5334C146.419 66.5571 146.323 66.5758 146.204 66.5893C146.086 66.6062 145.967 66.6147 145.848 66.6147C145.615 66.6147 145.408 66.5724 145.229 66.4877C145.049 66.3996 144.909 66.2506 144.807 66.0406C144.705 65.8272 144.654 65.5376 144.654 65.1717V59.6031Z"/>
<path d="M150.221 61.0156V66.5131H149.617V61.0156H150.221ZM149.51 59.4252C149.51 59.3101 149.546 59.2135 149.617 59.1356C149.691 59.0543 149.793 59.0137 149.922 59.0137C150.05 59.0137 150.152 59.0543 150.226 59.1356C150.304 59.2135 150.343 59.3101 150.343 59.4252C150.343 59.537 150.304 59.6336 150.226 59.7148C150.152 59.7928 150.05 59.8317 149.922 59.8317C149.793 59.8317 149.691 59.7928 149.617 59.7148C149.546 59.6336 149.51 59.537 149.51 59.4252Z"/>
<path d="M153.42 63.8507V63.683C153.42 63.2833 153.478 62.9141 153.593 62.5754C153.708 62.2367 153.873 61.9437 154.086 61.6964C154.303 61.4491 154.562 61.2577 154.863 61.1223C155.165 60.9834 155.5 60.9139 155.869 60.9139C156.242 60.9139 156.579 60.9834 156.881 61.1223C157.182 61.2577 157.441 61.4491 157.658 61.6964C157.875 61.9437 158.041 62.2367 158.156 62.5754C158.271 62.9141 158.329 63.2833 158.329 63.683V63.8507C158.329 64.2504 158.271 64.6196 158.156 64.9583C158.041 65.2937 157.875 65.585 157.658 65.8322C157.445 66.0795 157.187 66.2726 156.886 66.4115C156.584 66.547 156.249 66.6147 155.88 66.6147C155.507 66.6147 155.17 66.547 154.868 66.4115C154.567 66.2726 154.308 66.0795 154.091 65.8322C153.874 65.585 153.708 65.2937 153.593 64.9583C153.478 64.6196 153.42 64.2504 153.42 63.8507ZM154.025 63.683V63.8507C154.025 64.1522 154.066 64.4384 154.147 64.7094C154.228 64.977 154.347 65.2158 154.503 65.4258C154.658 65.6324 154.852 65.795 155.082 65.9135C155.312 66.0321 155.578 66.0914 155.88 66.0914C156.178 66.0914 156.44 66.0321 156.667 65.9135C156.897 65.795 157.091 65.6324 157.246 65.4258C157.402 65.2158 157.519 64.977 157.597 64.7094C157.678 64.4384 157.719 64.1522 157.719 63.8507V63.683C157.719 63.385 157.678 63.1021 157.597 62.8345C157.519 62.5669 157.4 62.3281 157.241 62.1181C157.085 61.9081 156.892 61.7421 156.662 61.6202C156.432 61.4982 156.168 61.4373 155.869 61.4373C155.571 61.4373 155.307 61.4982 155.077 61.6202C154.85 61.7421 154.657 61.9081 154.498 62.1181C154.342 62.3281 154.223 62.5669 154.142 62.8345C154.064 63.1021 154.025 63.385 154.025 63.683Z"/>
<path d="M162.066 62.1892V66.5131H161.462V61.0156H162.041L162.066 62.1892ZM161.929 63.4239L161.66 63.2715C161.68 62.9463 161.746 62.6414 161.858 62.3569C161.97 62.0724 162.12 61.8217 162.31 61.6049C162.503 61.3882 162.729 61.2188 162.986 61.0969C163.247 60.9749 163.535 60.9139 163.85 60.9139C164.124 60.9139 164.37 60.9512 164.586 61.0257C164.803 61.1002 164.988 61.2188 165.14 61.3814C165.293 61.544 165.408 61.7523 165.486 62.0063C165.567 62.2604 165.608 62.5703 165.608 62.9361V66.5131H164.998V62.9311C164.998 62.5517 164.945 62.2553 164.84 62.0419C164.735 61.8251 164.586 61.671 164.393 61.5795C164.2 61.4881 163.972 61.4424 163.707 61.4424C163.416 61.4424 163.16 61.5067 162.94 61.6354C162.723 61.7608 162.541 61.925 162.391 62.1283C162.246 62.3281 162.134 62.5432 162.056 62.7735C161.978 63.0005 161.936 63.2173 161.929 63.4239Z"/>
<path d="M172.348 65.1108C172.348 64.9617 172.311 64.8144 172.236 64.6687C172.162 64.5231 172.018 64.3893 171.805 64.2673C171.595 64.1454 171.285 64.0421 170.875 63.9574C170.57 63.8897 170.297 63.8134 170.057 63.7288C169.82 63.6441 169.62 63.5425 169.457 63.4239C169.295 63.3053 169.171 63.1631 169.086 62.9971C169.002 62.8311 168.959 62.6347 168.959 62.4077C168.959 62.2045 169.003 62.0131 169.091 61.8336C169.183 61.6507 169.312 61.4915 169.477 61.356C169.647 61.2171 169.85 61.1087 170.087 61.0308C170.328 60.9529 170.597 60.9139 170.895 60.9139C171.318 60.9139 171.681 60.9868 171.982 61.1324C172.287 61.2747 172.519 61.4695 172.678 61.7167C172.841 61.964 172.922 62.2434 172.922 62.5551H172.318C172.318 62.3654 172.262 62.1859 172.15 62.0165C172.042 61.8471 171.881 61.7083 171.667 61.5999C171.457 61.4915 171.2 61.4373 170.895 61.4373C170.58 61.4373 170.324 61.4847 170.128 61.5795C169.931 61.6744 169.787 61.7946 169.696 61.9403C169.608 62.0859 169.564 62.2367 169.564 62.3925C169.564 62.5144 169.582 62.6262 169.62 62.7278C169.66 62.8261 169.732 62.9175 169.833 63.0022C169.938 63.0869 170.087 63.1665 170.28 63.241C170.473 63.3155 170.724 63.3883 171.032 63.4595C171.476 63.5577 171.838 63.6779 172.12 63.8202C172.404 63.9591 172.614 64.1318 172.75 64.3385C172.885 64.5417 172.953 64.789 172.953 65.0803C172.953 65.3072 172.905 65.5155 172.811 65.7052C172.716 65.8915 172.579 66.0524 172.399 66.1879C172.223 66.3234 172.009 66.4284 171.759 66.5029C171.512 66.5774 171.234 66.6147 170.926 66.6147C170.461 66.6147 170.069 66.5385 169.747 66.3861C169.428 66.2303 169.186 66.027 169.02 65.7764C168.858 65.5223 168.776 65.253 168.776 64.9685H169.381C169.401 65.253 169.491 65.4783 169.65 65.6443C169.809 65.8068 170.004 65.922 170.235 65.9898C170.468 66.0575 170.699 66.0914 170.926 66.0914C171.237 66.0914 171.498 66.0456 171.708 65.9542C171.918 65.8627 172.077 65.7425 172.186 65.5934C172.294 65.4444 172.348 65.2835 172.348 65.1108Z"/>
</mask>
<path d="M79.2308 64.6941C79.2308 64.4909 79.1969 64.3097 79.1292 64.1505C79.0615 63.9913 78.9497 63.849 78.7939 63.7237C78.6414 63.595 78.4348 63.4764 78.174 63.368C77.9166 63.2562 77.5948 63.1461 77.2086 63.0378C76.8394 62.9328 76.5058 62.8176 76.2077 62.6923C75.9096 62.5669 75.6539 62.423 75.4405 62.2604C75.2305 62.0978 75.0696 61.9081 74.9578 61.6913C74.846 61.4711 74.7901 61.2154 74.7901 60.9241C74.7901 60.6396 74.8511 60.3804 74.973 60.1467C75.095 59.913 75.266 59.7115 75.4862 59.5421C75.7098 59.3727 75.9723 59.2423 76.2737 59.1509C76.5786 59.0594 76.9122 59.0137 77.2747 59.0137C77.7929 59.0137 78.24 59.1119 78.616 59.3084C78.9954 59.5048 79.2884 59.7707 79.495 60.1061C79.705 60.438 79.81 60.8106 79.81 61.2239H79.1851C79.1851 60.9021 79.1089 60.6159 78.9565 60.3652C78.8074 60.1112 78.5906 59.913 78.3061 59.7707C78.025 59.6251 77.6811 59.5523 77.2747 59.5523C76.8682 59.5523 76.5261 59.6149 76.2483 59.7403C75.974 59.8622 75.7656 60.0265 75.6234 60.2331C75.4845 60.4363 75.4151 60.6633 75.4151 60.9139C75.4151 61.0901 75.4489 61.2527 75.5167 61.4017C75.5844 61.5474 75.6945 61.6845 75.8469 61.8133C76.0028 61.9386 76.2077 62.0571 76.4617 62.1689C76.7158 62.2773 77.0291 62.3806 77.4017 62.4789C77.7946 62.5872 78.1435 62.7075 78.4484 62.8396C78.7532 62.9717 79.0106 63.1241 79.2207 63.2969C79.4307 63.4662 79.5899 63.6644 79.6983 63.8913C79.8067 64.1183 79.8609 64.3825 79.8609 64.684C79.8609 64.9854 79.7965 65.2564 79.6678 65.4969C79.5424 65.734 79.3646 65.9356 79.1343 66.1015C78.9073 66.2675 78.638 66.3945 78.3264 66.4826C78.0182 66.5707 77.6811 66.6147 77.3153 66.6147C76.9868 66.6147 76.6599 66.5724 76.3347 66.4877C76.0095 66.403 75.7115 66.2726 75.4405 66.0965C75.1729 65.9169 74.9578 65.6866 74.7952 65.4055C74.636 65.1243 74.5564 64.789 74.5564 64.3994H75.1763C75.1763 64.7111 75.2389 64.9736 75.3643 65.187C75.4896 65.4004 75.6556 65.5731 75.8622 65.7052C76.0722 65.8373 76.3025 65.9339 76.5532 65.9948C76.8072 66.0524 77.0613 66.0812 77.3153 66.0812C77.7049 66.0812 78.0419 66.0236 78.3264 65.9085C78.6143 65.7933 78.8362 65.6324 78.992 65.4258C79.1512 65.2158 79.2308 64.9719 79.2308 64.6941Z" fill="white"/>
<path d="M83.5173 62.1537V66.5131H82.9076V61.0156H83.4919L83.5173 62.1537ZM83.4055 63.4239L83.1108 63.2715C83.1311 62.9463 83.1921 62.6414 83.2937 62.3569C83.3987 62.0724 83.5444 61.8217 83.7307 61.6049C83.917 61.3882 84.1405 61.2188 84.4013 61.0969C84.6622 60.9749 84.9585 60.9139 85.2905 60.9139C85.5581 60.9139 85.8003 60.9512 86.0171 61.0257C86.2372 61.0969 86.4235 61.2103 86.576 61.3661C86.7318 61.5186 86.852 61.7184 86.9367 61.9657C87.0214 62.213 87.0637 62.5093 87.0637 62.8548V66.5131H86.4591V62.8752C86.4591 62.5093 86.4015 62.2231 86.2864 62.0165C86.1746 61.8099 86.0171 61.6625 85.8138 61.5745C85.614 61.4864 85.382 61.4424 85.1178 61.4424C84.8061 61.4424 84.5419 61.5067 84.3251 61.6354C84.1117 61.7608 83.9373 61.925 83.8018 62.1283C83.6697 62.3281 83.5715 62.5432 83.5071 62.7735C83.4427 63.0005 83.4089 63.2173 83.4055 63.4239ZM87.0587 62.9463L86.6522 62.9565C86.6691 62.6889 86.7301 62.4331 86.8351 62.1892C86.9435 61.9454 87.0908 61.7286 87.2771 61.5389C87.4634 61.3458 87.6853 61.1934 87.9427 61.0816C88.2035 60.9698 88.4965 60.9139 88.8217 60.9139C89.1063 60.9139 89.3603 60.9529 89.5839 61.0308C89.8074 61.1053 89.9954 61.2256 90.1478 61.3915C90.3037 61.5541 90.4222 61.7625 90.5035 62.0165C90.5848 62.2705 90.6254 62.5754 90.6254 62.9311V66.5131H90.0157V62.926C90.0157 62.5364 89.9582 62.235 89.843 62.0216C89.7312 61.8048 89.5754 61.6541 89.3755 61.5694C89.1757 61.4847 88.942 61.4424 88.6744 61.4424C88.4102 61.4457 88.1781 61.4949 87.9783 61.5897C87.7784 61.6812 87.6108 61.8031 87.4753 61.9555C87.3432 62.1046 87.2416 62.2655 87.1704 62.4382C87.1027 62.611 87.0654 62.7803 87.0587 62.9463Z" fill="white"/>
<path d="M97.3863 65.5274V62.6923C97.3863 62.4314 97.3321 62.2062 97.2237 62.0165C97.1153 61.8268 96.9561 61.6812 96.7461 61.5795C96.5361 61.4779 96.277 61.4271 95.9687 61.4271C95.6842 61.4271 95.4301 61.4779 95.2066 61.5795C94.9864 61.6778 94.812 61.8116 94.6832 61.9809C94.5579 62.1469 94.4953 62.3315 94.4953 62.5347L93.8855 62.5297C93.8855 62.323 93.9364 62.1232 94.038 61.9301C94.1396 61.737 94.2836 61.5643 94.4699 61.4119C94.6562 61.2594 94.878 61.1392 95.1354 61.0511C95.3963 60.9597 95.6825 60.9139 95.9941 60.9139C96.387 60.9139 96.7325 60.98 97.0306 61.1121C97.3321 61.2442 97.5675 61.4424 97.7369 61.7066C97.9062 61.9708 97.9909 62.3027 97.9909 62.7024V65.3597C97.9909 65.5494 98.0045 65.7459 98.0316 65.9491C98.062 66.1523 98.1044 66.32 98.1586 66.4521V66.5131H97.5133C97.4727 66.3911 97.4405 66.2387 97.4168 66.0558C97.3964 65.8695 97.3863 65.6934 97.3863 65.5274ZM97.5286 63.3121L97.5387 63.7796H96.3447C96.0331 63.7796 95.7536 63.8084 95.5064 63.8659C95.2625 63.9201 95.0558 64.0014 94.8865 64.1098C94.7171 64.2148 94.5867 64.3419 94.4953 64.4909C94.4072 64.6399 94.3632 64.8093 94.3632 64.999C94.3632 65.1954 94.4123 65.375 94.5105 65.5376C94.6121 65.7001 94.7544 65.8306 94.9373 65.9288C95.1236 66.0236 95.3438 66.0711 95.5978 66.0711C95.9365 66.0711 96.2346 66.0084 96.492 65.8831C96.7529 65.7577 96.968 65.5934 97.1373 65.3902C97.3067 65.187 97.4202 64.9651 97.4777 64.7246L97.7419 65.0752C97.6979 65.2446 97.6166 65.419 97.4981 65.5985C97.3829 65.7747 97.2322 65.9406 97.0459 66.0965C96.8596 66.2489 96.6394 66.3742 96.3853 66.4724C96.1347 66.5673 95.8502 66.6147 95.5318 66.6147C95.1727 66.6147 94.8594 66.547 94.5918 66.4115C94.3276 66.276 94.121 66.0914 93.9719 65.8577C93.8263 65.6205 93.7534 65.353 93.7534 65.0549C93.7534 64.7839 93.811 64.5417 93.9262 64.3283C94.0414 64.1115 94.2073 63.9286 94.4241 63.7796C94.6443 63.6271 94.9085 63.512 95.2167 63.4341C95.5284 63.3528 95.8773 63.3121 96.2634 63.3121H97.5286Z" fill="white"/>
<path d="M102.1 61.925V66.5131H101.495V61.0156H102.084L102.1 61.925ZM104.046 60.9749L104.03 61.5338C103.963 61.5236 103.896 61.5152 103.832 61.5084C103.768 61.5016 103.698 61.4982 103.624 61.4982C103.36 61.4982 103.128 61.5474 102.928 61.6456C102.731 61.7404 102.565 61.8742 102.43 62.047C102.294 62.2163 102.191 62.4162 102.12 62.6465C102.049 62.8735 102.008 63.1174 101.998 63.3782L101.774 63.4646C101.774 63.1055 101.812 62.7719 101.886 62.4636C101.961 62.1554 102.074 61.8861 102.227 61.6558C102.382 61.422 102.577 61.2408 102.811 61.1121C103.048 60.98 103.326 60.9139 103.644 60.9139C103.722 60.9139 103.798 60.9207 103.873 60.9343C103.951 60.9444 104.008 60.958 104.046 60.9749Z" fill="white"/>
<path d="M109.206 61.0156V61.5135H106.452V61.0156H109.206ZM107.463 59.6031H108.068V65.1768C108.068 65.4309 108.102 65.6222 108.169 65.751C108.237 65.8797 108.325 65.966 108.434 66.0101C108.542 66.0541 108.659 66.0761 108.784 66.0761C108.876 66.0761 108.964 66.0711 109.048 66.0609C109.133 66.0473 109.209 66.0338 109.277 66.0202L109.302 66.5334C109.228 66.5571 109.131 66.5758 109.013 66.5893C108.894 66.6062 108.776 66.6147 108.657 66.6147C108.423 66.6147 108.217 66.5724 108.037 66.4877C107.858 66.3996 107.717 66.2506 107.616 66.0406C107.514 65.8272 107.463 65.5376 107.463 65.1717V59.6031Z" fill="white"/>
<path d="M121.097 64.6941C121.097 64.4909 121.063 64.3097 120.995 64.1505C120.927 63.9913 120.815 63.849 120.66 63.7237C120.507 63.595 120.301 63.4764 120.04 63.368C119.782 63.2562 119.461 63.1461 119.074 63.0378C118.705 62.9328 118.372 62.8176 118.073 62.6923C117.775 62.5669 117.52 62.423 117.306 62.2604C117.096 62.0978 116.935 61.9081 116.824 61.6913C116.712 61.4711 116.656 61.2154 116.656 60.9241C116.656 60.6396 116.717 60.3804 116.839 60.1467C116.961 59.913 117.132 59.7115 117.352 59.5421C117.576 59.3727 117.838 59.2423 118.14 59.1509C118.444 59.0594 118.778 59.0137 119.14 59.0137C119.659 59.0137 120.106 59.1119 120.482 59.3084C120.861 59.5048 121.154 59.7707 121.361 60.1061C121.571 60.438 121.676 60.8106 121.676 61.2239H121.051C121.051 60.9021 120.975 60.6159 120.822 60.3652C120.673 60.1112 120.456 59.913 120.172 59.7707C119.891 59.6251 119.547 59.5523 119.14 59.5523C118.734 59.5523 118.392 59.6149 118.114 59.7403C117.84 59.8622 117.631 60.0265 117.489 60.2331C117.35 60.4363 117.281 60.6633 117.281 60.9139C117.281 61.0901 117.315 61.2527 117.382 61.4017C117.45 61.5474 117.56 61.6845 117.713 61.8133C117.869 61.9386 118.073 62.0571 118.328 62.1689C118.582 62.2773 118.895 62.3806 119.267 62.4789C119.66 62.5872 120.009 62.7075 120.314 62.8396C120.619 62.9717 120.876 63.1241 121.086 63.2969C121.296 63.4662 121.456 63.6644 121.564 63.8913C121.672 64.1183 121.727 64.3825 121.727 64.684C121.727 64.9854 121.662 65.2564 121.534 65.4969C121.408 65.734 121.23 65.9356 121 66.1015C120.773 66.2675 120.504 66.3945 120.192 66.4826C119.884 66.5707 119.547 66.6147 119.181 66.6147C118.853 66.6147 118.526 66.5724 118.2 66.4877C117.875 66.403 117.577 66.2726 117.306 66.0965C117.039 65.9169 116.824 65.6866 116.661 65.4055C116.502 65.1243 116.422 64.789 116.422 64.3994H117.042C117.042 64.7111 117.105 64.9736 117.23 65.187C117.355 65.4004 117.521 65.5731 117.728 65.7052C117.938 65.8373 118.168 65.9339 118.419 65.9948C118.673 66.0524 118.927 66.0812 119.181 66.0812C119.571 66.0812 119.908 66.0236 120.192 65.9085C120.48 65.7933 120.702 65.6324 120.858 65.4258C121.017 65.2158 121.097 64.9719 121.097 64.6941Z" fill="white"/>
<path d="M124.474 63.8507V63.683C124.474 63.2833 124.531 62.9141 124.646 62.5754C124.761 62.2367 124.926 61.9437 125.139 61.6964C125.356 61.4491 125.615 61.2577 125.917 61.1223C126.218 60.9834 126.553 60.9139 126.923 60.9139C127.295 60.9139 127.632 60.9834 127.934 61.1223C128.235 61.2577 128.494 61.4491 128.711 61.6964C128.928 61.9437 129.094 62.2367 129.209 62.5754C129.324 62.9141 129.382 63.2833 129.382 63.683V63.8507C129.382 64.2504 129.324 64.6196 129.209 64.9583C129.094 65.2937 128.928 65.585 128.711 65.8322C128.498 66.0795 128.24 66.2726 127.939 66.4115C127.637 66.547 127.302 66.6147 126.933 66.6147C126.56 66.6147 126.223 66.547 125.922 66.4115C125.62 66.2726 125.361 66.0795 125.144 65.8322C124.927 65.585 124.761 65.2937 124.646 64.9583C124.531 64.6196 124.474 64.2504 124.474 63.8507ZM125.078 63.683V63.8507C125.078 64.1522 125.119 64.4384 125.2 64.7094C125.281 64.977 125.4 65.2158 125.556 65.4258C125.712 65.6324 125.905 65.795 126.135 65.9135C126.365 66.0321 126.631 66.0914 126.933 66.0914C127.231 66.0914 127.493 66.0321 127.72 65.9135C127.951 65.795 128.144 65.6324 128.299 65.4258C128.455 65.2158 128.572 64.977 128.65 64.7094C128.731 64.4384 128.772 64.1522 128.772 63.8507V63.683C128.772 63.385 128.731 63.1021 128.65 62.8345C128.572 62.5669 128.454 62.3281 128.294 62.1181C128.139 61.9081 127.946 61.7421 127.715 61.6202C127.485 61.4982 127.221 61.4373 126.923 61.4373C126.624 61.4373 126.36 61.4982 126.13 61.6202C125.903 61.7421 125.71 61.9081 125.551 62.1181C125.395 62.3281 125.276 62.5669 125.195 62.8345C125.117 63.1021 125.078 63.385 125.078 63.683Z" fill="white"/>
<path d="M133.191 58.7088V66.5131H132.586V58.7088H133.191Z" fill="white"/>
<path d="M140.246 65.2429V61.0156H140.856V66.5131H140.271L140.246 65.2429ZM140.358 64.2267L140.673 64.2165C140.673 64.562 140.632 64.8804 140.551 65.1717C140.47 65.463 140.343 65.7171 140.17 65.9339C139.997 66.1507 139.774 66.3183 139.499 66.4369C139.225 66.5554 138.895 66.6147 138.508 66.6147C138.241 66.6147 137.995 66.5774 137.772 66.5029C137.552 66.425 137.362 66.3031 137.203 66.1371C137.043 65.9711 136.92 65.756 136.832 65.4918C136.747 65.2276 136.705 64.9075 136.705 64.5315V61.0156H137.309V64.5417C137.309 64.8364 137.342 65.082 137.406 65.2784C137.474 65.4749 137.565 65.6324 137.68 65.751C137.799 65.8695 137.934 65.9542 138.087 66.005C138.239 66.0558 138.403 66.0812 138.58 66.0812C139.027 66.0812 139.379 65.9948 139.636 65.8221C139.897 65.6493 140.082 65.4224 140.19 65.1412C140.302 64.8567 140.358 64.5519 140.358 64.2267Z" fill="white"/>
<path d="M146.397 61.0156V61.5135H143.643V61.0156H146.397ZM144.654 59.6031H145.259V65.1768C145.259 65.4309 145.293 65.6222 145.361 65.751C145.428 65.8797 145.517 65.966 145.625 66.0101C145.733 66.0541 145.85 66.0761 145.976 66.0761C146.067 66.0761 146.155 66.0711 146.24 66.0609C146.324 66.0473 146.401 66.0338 146.468 66.0202L146.494 66.5334C146.419 66.5571 146.323 66.5758 146.204 66.5893C146.086 66.6062 145.967 66.6147 145.848 66.6147C145.615 66.6147 145.408 66.5724 145.229 66.4877C145.049 66.3996 144.909 66.2506 144.807 66.0406C144.705 65.8272 144.654 65.5376 144.654 65.1717V59.6031Z" fill="white"/>
<path d="M150.221 61.0156V66.5131H149.617V61.0156H150.221ZM149.51 59.4252C149.51 59.3101 149.546 59.2135 149.617 59.1356C149.691 59.0543 149.793 59.0137 149.922 59.0137C150.05 59.0137 150.152 59.0543 150.226 59.1356C150.304 59.2135 150.343 59.3101 150.343 59.4252C150.343 59.537 150.304 59.6336 150.226 59.7148C150.152 59.7928 150.05 59.8317 149.922 59.8317C149.793 59.8317 149.691 59.7928 149.617 59.7148C149.546 59.6336 149.51 59.537 149.51 59.4252Z" fill="white"/>
<path d="M153.42 63.8507V63.683C153.42 63.2833 153.478 62.9141 153.593 62.5754C153.708 62.2367 153.873 61.9437 154.086 61.6964C154.303 61.4491 154.562 61.2577 154.863 61.1223C155.165 60.9834 155.5 60.9139 155.869 60.9139C156.242 60.9139 156.579 60.9834 156.881 61.1223C157.182 61.2577 157.441 61.4491 157.658 61.6964C157.875 61.9437 158.041 62.2367 158.156 62.5754C158.271 62.9141 158.329 63.2833 158.329 63.683V63.8507C158.329 64.2504 158.271 64.6196 158.156 64.9583C158.041 65.2937 157.875 65.585 157.658 65.8322C157.445 66.0795 157.187 66.2726 156.886 66.4115C156.584 66.547 156.249 66.6147 155.88 66.6147C155.507 66.6147 155.17 66.547 154.868 66.4115C154.567 66.2726 154.308 66.0795 154.091 65.8322C153.874 65.585 153.708 65.2937 153.593 64.9583C153.478 64.6196 153.42 64.2504 153.42 63.8507ZM154.025 63.683V63.8507C154.025 64.1522 154.066 64.4384 154.147 64.7094C154.228 64.977 154.347 65.2158 154.503 65.4258C154.658 65.6324 154.852 65.795 155.082 65.9135C155.312 66.0321 155.578 66.0914 155.88 66.0914C156.178 66.0914 156.44 66.0321 156.667 65.9135C156.897 65.795 157.091 65.6324 157.246 65.4258C157.402 65.2158 157.519 64.977 157.597 64.7094C157.678 64.4384 157.719 64.1522 157.719 63.8507V63.683C157.719 63.385 157.678 63.1021 157.597 62.8345C157.519 62.5669 157.4 62.3281 157.241 62.1181C157.085 61.9081 156.892 61.7421 156.662 61.6202C156.432 61.4982 156.168 61.4373 155.869 61.4373C155.571 61.4373 155.307 61.4982 155.077 61.6202C154.85 61.7421 154.657 61.9081 154.498 62.1181C154.342 62.3281 154.223 62.5669 154.142 62.8345C154.064 63.1021 154.025 63.385 154.025 63.683Z" fill="white"/>
<path d="M162.066 62.1892V66.5131H161.462V61.0156H162.041L162.066 62.1892ZM161.929 63.4239L161.66 63.2715C161.68 62.9463 161.746 62.6414 161.858 62.3569C161.97 62.0724 162.12 61.8217 162.31 61.6049C162.503 61.3882 162.729 61.2188 162.986 61.0969C163.247 60.9749 163.535 60.9139 163.85 60.9139C164.124 60.9139 164.37 60.9512 164.586 61.0257C164.803 61.1002 164.988 61.2188 165.14 61.3814C165.293 61.544 165.408 61.7523 165.486 62.0063C165.567 62.2604 165.608 62.5703 165.608 62.9361V66.5131H164.998V62.9311C164.998 62.5517 164.945 62.2553 164.84 62.0419C164.735 61.8251 164.586 61.671 164.393 61.5795C164.2 61.4881 163.972 61.4424 163.707 61.4424C163.416 61.4424 163.16 61.5067 162.94 61.6354C162.723 61.7608 162.541 61.925 162.391 62.1283C162.246 62.3281 162.134 62.5432 162.056 62.7735C161.978 63.0005 161.936 63.2173 161.929 63.4239Z" fill="white"/>
<path d="M172.348 65.1108C172.348 64.9617 172.311 64.8144 172.236 64.6687C172.162 64.5231 172.018 64.3893 171.805 64.2673C171.595 64.1454 171.285 64.0421 170.875 63.9574C170.57 63.8897 170.297 63.8134 170.057 63.7288C169.82 63.6441 169.62 63.5425 169.457 63.4239C169.295 63.3053 169.171 63.1631 169.086 62.9971C169.002 62.8311 168.959 62.6347 168.959 62.4077C168.959 62.2045 169.003 62.0131 169.091 61.8336C169.183 61.6507 169.312 61.4915 169.477 61.356C169.647 61.2171 169.85 61.1087 170.087 61.0308C170.328 60.9529 170.597 60.9139 170.895 60.9139C171.318 60.9139 171.681 60.9868 171.982 61.1324C172.287 61.2747 172.519 61.4695 172.678 61.7167C172.841 61.964 172.922 62.2434 172.922 62.5551H172.318C172.318 62.3654 172.262 62.1859 172.15 62.0165C172.042 61.8471 171.881 61.7083 171.667 61.5999C171.457 61.4915 171.2 61.4373 170.895 61.4373C170.58 61.4373 170.324 61.4847 170.128 61.5795C169.931 61.6744 169.787 61.7946 169.696 61.9403C169.608 62.0859 169.564 62.2367 169.564 62.3925C169.564 62.5144 169.582 62.6262 169.62 62.7278C169.66 62.8261 169.732 62.9175 169.833 63.0022C169.938 63.0869 170.087 63.1665 170.28 63.241C170.473 63.3155 170.724 63.3883 171.032 63.4595C171.476 63.5577 171.838 63.6779 172.12 63.8202C172.404 63.9591 172.614 64.1318 172.75 64.3385C172.885 64.5417 172.953 64.789 172.953 65.0803C172.953 65.3072 172.905 65.5155 172.811 65.7052C172.716 65.8915 172.579 66.0524 172.399 66.1879C172.223 66.3234 172.009 66.4284 171.759 66.5029C171.512 66.5774 171.234 66.6147 170.926 66.6147C170.461 66.6147 170.069 66.5385 169.747 66.3861C169.428 66.2303 169.186 66.027 169.02 65.7764C168.858 65.5223 168.776 65.253 168.776 64.9685H169.381C169.401 65.253 169.491 65.4783 169.65 65.6443C169.809 65.8068 170.004 65.922 170.235 65.9898C170.468 66.0575 170.699 66.0914 170.926 66.0914C171.237 66.0914 171.498 66.0456 171.708 65.9542C171.918 65.8627 172.077 65.7425 172.186 65.5934C172.294 65.4444 172.348 65.2835 172.348 65.1108Z" fill="white"/>
<path d="M79.2308 64.6941C79.2308 64.4909 79.1969 64.3097 79.1292 64.1505C79.0615 63.9913 78.9497 63.849 78.7939 63.7237C78.6414 63.595 78.4348 63.4764 78.174 63.368C77.9166 63.2562 77.5948 63.1461 77.2086 63.0378C76.8394 62.9328 76.5058 62.8176 76.2077 62.6923C75.9096 62.5669 75.6539 62.423 75.4405 62.2604C75.2305 62.0978 75.0696 61.9081 74.9578 61.6913C74.846 61.4711 74.7901 61.2154 74.7901 60.9241C74.7901 60.6396 74.8511 60.3804 74.973 60.1467C75.095 59.913 75.266 59.7115 75.4862 59.5421C75.7098 59.3727 75.9723 59.2423 76.2737 59.1509C76.5786 59.0594 76.9122 59.0137 77.2747 59.0137C77.7929 59.0137 78.24 59.1119 78.616 59.3084C78.9954 59.5048 79.2884 59.7707 79.495 60.1061C79.705 60.438 79.81 60.8106 79.81 61.2239H79.1851C79.1851 60.9021 79.1089 60.6159 78.9565 60.3652C78.8074 60.1112 78.5906 59.913 78.3061 59.7707C78.025 59.6251 77.6811 59.5523 77.2747 59.5523C76.8682 59.5523 76.5261 59.6149 76.2483 59.7403C75.974 59.8622 75.7656 60.0265 75.6234 60.2331C75.4845 60.4363 75.4151 60.6633 75.4151 60.9139C75.4151 61.0901 75.4489 61.2527 75.5167 61.4017C75.5844 61.5474 75.6945 61.6845 75.8469 61.8133C76.0028 61.9386 76.2077 62.0571 76.4617 62.1689C76.7158 62.2773 77.0291 62.3806 77.4017 62.4789C77.7946 62.5872 78.1435 62.7075 78.4484 62.8396C78.7532 62.9717 79.0106 63.1241 79.2207 63.2969C79.4307 63.4662 79.5899 63.6644 79.6983 63.8913C79.8067 64.1183 79.8609 64.3825 79.8609 64.684C79.8609 64.9854 79.7965 65.2564 79.6678 65.4969C79.5424 65.734 79.3646 65.9356 79.1343 66.1015C78.9073 66.2675 78.638 66.3945 78.3264 66.4826C78.0182 66.5707 77.6811 66.6147 77.3153 66.6147C76.9868 66.6147 76.6599 66.5724 76.3347 66.4877C76.0095 66.403 75.7115 66.2726 75.4405 66.0965C75.1729 65.9169 74.9578 65.6866 74.7952 65.4055C74.636 65.1243 74.5564 64.789 74.5564 64.3994H75.1763C75.1763 64.7111 75.2389 64.9736 75.3643 65.187C75.4896 65.4004 75.6556 65.5731 75.8622 65.7052C76.0722 65.8373 76.3025 65.9339 76.5532 65.9948C76.8072 66.0524 77.0613 66.0812 77.3153 66.0812C77.7049 66.0812 78.0419 66.0236 78.3264 65.9085C78.6143 65.7933 78.8362 65.6324 78.992 65.4258C79.1512 65.2158 79.2308 64.9719 79.2308 64.6941Z" stroke="white" mask="url(#path-11-outside-1_40_318)"/>
<path d="M83.5173 62.1537V66.5131H82.9076V61.0156H83.4919L83.5173 62.1537ZM83.4055 63.4239L83.1108 63.2715C83.1311 62.9463 83.1921 62.6414 83.2937 62.3569C83.3987 62.0724 83.5444 61.8217 83.7307 61.6049C83.917 61.3882 84.1405 61.2188 84.4013 61.0969C84.6622 60.9749 84.9585 60.9139 85.2905 60.9139C85.5581 60.9139 85.8003 60.9512 86.0171 61.0257C86.2372 61.0969 86.4235 61.2103 86.576 61.3661C86.7318 61.5186 86.852 61.7184 86.9367 61.9657C87.0214 62.213 87.0637 62.5093 87.0637 62.8548V66.5131H86.4591V62.8752C86.4591 62.5093 86.4015 62.2231 86.2864 62.0165C86.1746 61.8099 86.0171 61.6625 85.8138 61.5745C85.614 61.4864 85.382 61.4424 85.1178 61.4424C84.8061 61.4424 84.5419 61.5067 84.3251 61.6354C84.1117 61.7608 83.9373 61.925 83.8018 62.1283C83.6697 62.3281 83.5715 62.5432 83.5071 62.7735C83.4427 63.0005 83.4089 63.2173 83.4055 63.4239ZM87.0587 62.9463L86.6522 62.9565C86.6691 62.6889 86.7301 62.4331 86.8351 62.1892C86.9435 61.9454 87.0908 61.7286 87.2771 61.5389C87.4634 61.3458 87.6853 61.1934 87.9427 61.0816C88.2035 60.9698 88.4965 60.9139 88.8217 60.9139C89.1063 60.9139 89.3603 60.9529 89.5839 61.0308C89.8074 61.1053 89.9954 61.2256 90.1478 61.3915C90.3037 61.5541 90.4222 61.7625 90.5035 62.0165C90.5848 62.2705 90.6254 62.5754 90.6254 62.9311V66.5131H90.0157V62.926C90.0157 62.5364 89.9582 62.235 89.843 62.0216C89.7312 61.8048 89.5754 61.6541 89.3755 61.5694C89.1757 61.4847 88.942 61.4424 88.6744 61.4424C88.4102 61.4457 88.1781 61.4949 87.9783 61.5897C87.7784 61.6812 87.6108 61.8031 87.4753 61.9555C87.3432 62.1046 87.2416 62.2655 87.1704 62.4382C87.1027 62.611 87.0654 62.7803 87.0587 62.9463Z" stroke="white" mask="url(#path-11-outside-1_40_318)"/>
<path d="M97.3863 65.5274V62.6923C97.3863 62.4314 97.3321 62.2062 97.2237 62.0165C97.1153 61.8268 96.9561 61.6812 96.7461 61.5795C96.5361 61.4779 96.277 61.4271 95.9687 61.4271C95.6842 61.4271 95.4301 61.4779 95.2066 61.5795C94.9864 61.6778 94.812 61.8116 94.6832 61.9809C94.5579 62.1469 94.4953 62.3315 94.4953 62.5347L93.8855 62.5297C93.8855 62.323 93.9364 62.1232 94.038 61.9301C94.1396 61.737 94.2836 61.5643 94.4699 61.4119C94.6562 61.2594 94.878 61.1392 95.1354 61.0511C95.3963 60.9597 95.6825 60.9139 95.9941 60.9139C96.387 60.9139 96.7325 60.98 97.0306 61.1121C97.3321 61.2442 97.5675 61.4424 97.7369 61.7066C97.9062 61.9708 97.9909 62.3027 97.9909 62.7024V65.3597C97.9909 65.5494 98.0045 65.7459 98.0316 65.9491C98.062 66.1523 98.1044 66.32 98.1586 66.4521V66.5131H97.5133C97.4727 66.3911 97.4405 66.2387 97.4168 66.0558C97.3964 65.8695 97.3863 65.6934 97.3863 65.5274ZM97.5286 63.3121L97.5387 63.7796H96.3447C96.0331 63.7796 95.7536 63.8084 95.5064 63.8659C95.2625 63.9201 95.0558 64.0014 94.8865 64.1098C94.7171 64.2148 94.5867 64.3419 94.4953 64.4909C94.4072 64.6399 94.3632 64.8093 94.3632 64.999C94.3632 65.1954 94.4123 65.375 94.5105 65.5376C94.6121 65.7001 94.7544 65.8306 94.9373 65.9288C95.1236 66.0236 95.3438 66.0711 95.5978 66.0711C95.9365 66.0711 96.2346 66.0084 96.492 65.8831C96.7529 65.7577 96.968 65.5934 97.1373 65.3902C97.3067 65.187 97.4202 64.9651 97.4777 64.7246L97.7419 65.0752C97.6979 65.2446 97.6166 65.419 97.4981 65.5985C97.3829 65.7747 97.2322 65.9406 97.0459 66.0965C96.8596 66.2489 96.6394 66.3742 96.3853 66.4724C96.1347 66.5673 95.8502 66.6147 95.5318 66.6147C95.1727 66.6147 94.8594 66.547 94.5918 66.4115C94.3276 66.276 94.121 66.0914 93.9719 65.8577C93.8263 65.6205 93.7534 65.353 93.7534 65.0549C93.7534 64.7839 93.811 64.5417 93.9262 64.3283C94.0414 64.1115 94.2073 63.9286 94.4241 63.7796C94.6443 63.6271 94.9085 63.512 95.2167 63.4341C95.5284 63.3528 95.8773 63.3121 96.2634 63.3121H97.5286Z" stroke="white" mask="url(#path-11-outside-1_40_318)"/>
<path d="M102.1 61.925V66.5131H101.495V61.0156H102.084L102.1 61.925ZM104.046 60.9749L104.03 61.5338C103.963 61.5236 103.896 61.5152 103.832 61.5084C103.768 61.5016 103.698 61.4982 103.624 61.4982C103.36 61.4982 103.128 61.5474 102.928 61.6456C102.731 61.7404 102.565 61.8742 102.43 62.047C102.294 62.2163 102.191 62.4162 102.12 62.6465C102.049 62.8735 102.008 63.1174 101.998 63.3782L101.774 63.4646C101.774 63.1055 101.812 62.7719 101.886 62.4636C101.961 62.1554 102.074 61.8861 102.227 61.6558C102.382 61.422 102.577 61.2408 102.811 61.1121C103.048 60.98 103.326 60.9139 103.644 60.9139C103.722 60.9139 103.798 60.9207 103.873 60.9343C103.951 60.9444 104.008 60.958 104.046 60.9749Z" stroke="white" mask="url(#path-11-outside-1_40_318)"/>
<path d="M109.206 61.0156V61.5135H106.452V61.0156H109.206ZM107.463 59.6031H108.068V65.1768C108.068 65.4309 108.102 65.6222 108.169 65.751C108.237 65.8797 108.325 65.966 108.434 66.0101C108.542 66.0541 108.659 66.0761 108.784 66.0761C108.876 66.0761 108.964 66.0711 109.048 66.0609C109.133 66.0473 109.209 66.0338 109.277 66.0202L109.302 66.5334C109.228 66.5571 109.131 66.5758 109.013 66.5893C108.894 66.6062 108.776 66.6147 108.657 66.6147C108.423 66.6147 108.217 66.5724 108.037 66.4877C107.858 66.3996 107.717 66.2506 107.616 66.0406C107.514 65.8272 107.463 65.5376 107.463 65.1717V59.6031Z" stroke="white" mask="url(#path-11-outside-1_40_318)"/>
<path d="M121.097 64.6941C121.097 64.4909 121.063 64.3097 120.995 64.1505C120.927 63.9913 120.815 63.849 120.66 63.7237C120.507 63.595 120.301 63.4764 120.04 63.368C119.782 63.2562 119.461 63.1461 119.074 63.0378C118.705 62.9328 118.372 62.8176 118.073 62.6923C117.775 62.5669 117.52 62.423 117.306 62.2604C117.096 62.0978 116.935 61.9081 116.824 61.6913C116.712 61.4711 116.656 61.2154 116.656 60.9241C116.656 60.6396 116.717 60.3804 116.839 60.1467C116.961 59.913 117.132 59.7115 117.352 59.5421C117.576 59.3727 117.838 59.2423 118.14 59.1509C118.444 59.0594 118.778 59.0137 119.14 59.0137C119.659 59.0137 120.106 59.1119 120.482 59.3084C120.861 59.5048 121.154 59.7707 121.361 60.1061C121.571 60.438 121.676 60.8106 121.676 61.2239H121.051C121.051 60.9021 120.975 60.6159 120.822 60.3652C120.673 60.1112 120.456 59.913 120.172 59.7707C119.891 59.6251 119.547 59.5523 119.14 59.5523C118.734 59.5523 118.392 59.6149 118.114 59.7403C117.84 59.8622 117.631 60.0265 117.489 60.2331C117.35 60.4363 117.281 60.6633 117.281 60.9139C117.281 61.0901 117.315 61.2527 117.382 61.4017C117.45 61.5474 117.56 61.6845 117.713 61.8133C117.869 61.9386 118.073 62.0571 118.328 62.1689C118.582 62.2773 118.895 62.3806 119.267 62.4789C119.66 62.5872 120.009 62.7075 120.314 62.8396C120.619 62.9717 120.876 63.1241 121.086 63.2969C121.296 63.4662 121.456 63.6644 121.564 63.8913C121.672 64.1183 121.727 64.3825 121.727 64.684C121.727 64.9854 121.662 65.2564 121.534 65.4969C121.408 65.734 121.23 65.9356 121 66.1015C120.773 66.2675 120.504 66.3945 120.192 66.4826C119.884 66.5707 119.547 66.6147 119.181 66.6147C118.853 66.6147 118.526 66.5724 118.2 66.4877C117.875 66.403 117.577 66.2726 117.306 66.0965C117.039 65.9169 116.824 65.6866 116.661 65.4055C116.502 65.1243 116.422 64.789 116.422 64.3994H117.042C117.042 64.7111 117.105 64.9736 117.23 65.187C117.355 65.4004 117.521 65.5731 117.728 65.7052C117.938 65.8373 118.168 65.9339 118.419 65.9948C118.673 66.0524 118.927 66.0812 119.181 66.0812C119.571 66.0812 119.908 66.0236 120.192 65.9085C120.48 65.7933 120.702 65.6324 120.858 65.4258C121.017 65.2158 121.097 64.9719 121.097 64.6941Z" stroke="white" mask="url(#path-11-outside-1_40_318)"/>
<path d="M124.474 63.8507V63.683C124.474 63.2833 124.531 62.9141 124.646 62.5754C124.761 62.2367 124.926 61.9437 125.139 61.6964C125.356 61.4491 125.615 61.2577 125.917 61.1223C126.218 60.9834 126.553 60.9139 126.923 60.9139C127.295 60.9139 127.632 60.9834 127.934 61.1223C128.235 61.2577 128.494 61.4491 128.711 61.6964C128.928 61.9437 129.094 62.2367 129.209 62.5754C129.324 62.9141 129.382 63.2833 129.382 63.683V63.8507C129.382 64.2504 129.324 64.6196 129.209 64.9583C129.094 65.2937 128.928 65.585 128.711 65.8322C128.498 66.0795 128.24 66.2726 127.939 66.4115C127.637 66.547 127.302 66.6147 126.933 66.6147C126.56 66.6147 126.223 66.547 125.922 66.4115C125.62 66.2726 125.361 66.0795 125.144 65.8322C124.927 65.585 124.761 65.2937 124.646 64.9583C124.531 64.6196 124.474 64.2504 124.474 63.8507ZM125.078 63.683V63.8507C125.078 64.1522 125.119 64.4384 125.2 64.7094C125.281 64.977 125.4 65.2158 125.556 65.4258C125.712 65.6324 125.905 65.795 126.135 65.9135C126.365 66.0321 126.631 66.0914 126.933 66.0914C127.231 66.0914 127.493 66.0321 127.72 65.9135C127.951 65.795 128.144 65.6324 128.299 65.4258C128.455 65.2158 128.572 64.977 128.65 64.7094C128.731 64.4384 128.772 64.1522 128.772 63.8507V63.683C128.772 63.385 128.731 63.1021 128.65 62.8345C128.572 62.5669 128.454 62.3281 128.294 62.1181C128.139 61.9081 127.946 61.7421 127.715 61.6202C127.485 61.4982 127.221 61.4373 126.923 61.4373C126.624 61.4373 126.36 61.4982 126.13 61.6202C125.903 61.7421 125.71 61.9081 125.551 62.1181C125.395 62.3281 125.276 62.5669 125.195 62.8345C125.117 63.1021 125.078 63.385 125.078 63.683Z" stroke="white" mask="url(#path-11-outside-1_40_318)"/>
<path d="M133.191 58.7088V66.5131H132.586V58.7088H133.191Z" stroke="white" mask="url(#path-11-outside-1_40_318)"/>
<path d="M140.246 65.2429V61.0156H140.856V66.5131H140.271L140.246 65.2429ZM140.358 64.2267L140.673 64.2165C140.673 64.562 140.632 64.8804 140.551 65.1717C140.47 65.463 140.343 65.7171 140.17 65.9339C139.997 66.1507 139.774 66.3183 139.499 66.4369C139.225 66.5554 138.895 66.6147 138.508 66.6147C138.241 66.6147 137.995 66.5774 137.772 66.5029C137.552 66.425 137.362 66.3031 137.203 66.1371C137.043 65.9711 136.92 65.756 136.832 65.4918C136.747 65.2276 136.705 64.9075 136.705 64.5315V61.0156H137.309V64.5417C137.309 64.8364 137.342 65.082 137.406 65.2784C137.474 65.4749 137.565 65.6324 137.68 65.751C137.799 65.8695 137.934 65.9542 138.087 66.005C138.239 66.0558 138.403 66.0812 138.58 66.0812C139.027 66.0812 139.379 65.9948 139.636 65.8221C139.897 65.6493 140.082 65.4224 140.19 65.1412C140.302 64.8567 140.358 64.5519 140.358 64.2267Z" stroke="white" mask="url(#path-11-outside-1_40_318)"/>
<path d="M146.397 61.0156V61.5135H143.643V61.0156H146.397ZM144.654 59.6031H145.259V65.1768C145.259 65.4309 145.293 65.6222 145.361 65.751C145.428 65.8797 145.517 65.966 145.625 66.0101C145.733 66.0541 145.85 66.0761 145.976 66.0761C146.067 66.0761 146.155 66.0711 146.24 66.0609C146.324 66.0473 146.401 66.0338 146.468 66.0202L146.494 66.5334C146.419 66.5571 146.323 66.5758 146.204 66.5893C146.086 66.6062 145.967 66.6147 145.848 66.6147C145.615 66.6147 145.408 66.5724 145.229 66.4877C145.049 66.3996 144.909 66.2506 144.807 66.0406C144.705 65.8272 144.654 65.5376 144.654 65.1717V59.6031Z" stroke="white" mask="url(#path-11-outside-1_40_318)"/>
<path d="M150.221 61.0156V66.5131H149.617V61.0156H150.221ZM149.51 59.4252C149.51 59.3101 149.546 59.2135 149.617 59.1356C149.691 59.0543 149.793 59.0137 149.922 59.0137C150.05 59.0137 150.152 59.0543 150.226 59.1356C150.304 59.2135 150.343 59.3101 150.343 59.4252C150.343 59.537 150.304 59.6336 150.226 59.7148C150.152 59.7928 150.05 59.8317 149.922 59.8317C149.793 59.8317 149.691 59.7928 149.617 59.7148C149.546 59.6336 149.51 59.537 149.51 59.4252Z" stroke="white" mask="url(#path-11-outside-1_40_318)"/>
<path d="M153.42 63.8507V63.683C153.42 63.2833 153.478 62.9141 153.593 62.5754C153.708 62.2367 153.873 61.9437 154.086 61.6964C154.303 61.4491 154.562 61.2577 154.863 61.1223C155.165 60.9834 155.5 60.9139 155.869 60.9139C156.242 60.9139 156.579 60.9834 156.881 61.1223C157.182 61.2577 157.441 61.4491 157.658 61.6964C157.875 61.9437 158.041 62.2367 158.156 62.5754C158.271 62.9141 158.329 63.2833 158.329 63.683V63.8507C158.329 64.2504 158.271 64.6196 158.156 64.9583C158.041 65.2937 157.875 65.585 157.658 65.8322C157.445 66.0795 157.187 66.2726 156.886 66.4115C156.584 66.547 156.249 66.6147 155.88 66.6147C155.507 66.6147 155.17 66.547 154.868 66.4115C154.567 66.2726 154.308 66.0795 154.091 65.8322C153.874 65.585 153.708 65.2937 153.593 64.9583C153.478 64.6196 153.42 64.2504 153.42 63.8507ZM154.025 63.683V63.8507C154.025 64.1522 154.066 64.4384 154.147 64.7094C154.228 64.977 154.347 65.2158 154.503 65.4258C154.658 65.6324 154.852 65.795 155.082 65.9135C155.312 66.0321 155.578 66.0914 155.88 66.0914C156.178 66.0914 156.44 66.0321 156.667 65.9135C156.897 65.795 157.091 65.6324 157.246 65.4258C157.402 65.2158 157.519 64.977 157.597 64.7094C157.678 64.4384 157.719 64.1522 157.719 63.8507V63.683C157.719 63.385 157.678 63.1021 157.597 62.8345C157.519 62.5669 157.4 62.3281 157.241 62.1181C157.085 61.9081 156.892 61.7421 156.662 61.6202C156.432 61.4982 156.168 61.4373 155.869 61.4373C155.571 61.4373 155.307 61.4982 155.077 61.6202C154.85 61.7421 154.657 61.9081 154.498 62.1181C154.342 62.3281 154.223 62.5669 154.142 62.8345C154.064 63.1021 154.025 63.385 154.025 63.683Z" stroke="white" mask="url(#path-11-outside-1_40_318)"/>
<path d="M162.066 62.1892V66.5131H161.462V61.0156H162.041L162.066 62.1892ZM161.929 63.4239L161.66 63.2715C161.68 62.9463 161.746 62.6414 161.858 62.3569C161.97 62.0724 162.12 61.8217 162.31 61.6049C162.503 61.3882 162.729 61.2188 162.986 61.0969C163.247 60.9749 163.535 60.9139 163.85 60.9139C164.124 60.9139 164.37 60.9512 164.586 61.0257C164.803 61.1002 164.988 61.2188 165.14 61.3814C165.293 61.544 165.408 61.7523 165.486 62.0063C165.567 62.2604 165.608 62.5703 165.608 62.9361V66.5131H164.998V62.9311C164.998 62.5517 164.945 62.2553 164.84 62.0419C164.735 61.8251 164.586 61.671 164.393 61.5795C164.2 61.4881 163.972 61.4424 163.707 61.4424C163.416 61.4424 163.16 61.5067 162.94 61.6354C162.723 61.7608 162.541 61.925 162.391 62.1283C162.246 62.3281 162.134 62.5432 162.056 62.7735C161.978 63.0005 161.936 63.2173 161.929 63.4239Z" stroke="white" mask="url(#path-11-outside-1_40_318)"/>
<path d="M172.348 65.1108C172.348 64.9617 172.311 64.8144 172.236 64.6687C172.162 64.5231 172.018 64.3893 171.805 64.2673C171.595 64.1454 171.285 64.0421 170.875 63.9574C170.57 63.8897 170.297 63.8134 170.057 63.7288C169.82 63.6441 169.62 63.5425 169.457 63.4239C169.295 63.3053 169.171 63.1631 169.086 62.9971C169.002 62.8311 168.959 62.6347 168.959 62.4077C168.959 62.2045 169.003 62.0131 169.091 61.8336C169.183 61.6507 169.312 61.4915 169.477 61.356C169.647 61.2171 169.85 61.1087 170.087 61.0308C170.328 60.9529 170.597 60.9139 170.895 60.9139C171.318 60.9139 171.681 60.9868 171.982 61.1324C172.287 61.2747 172.519 61.4695 172.678 61.7167C172.841 61.964 172.922 62.2434 172.922 62.5551H172.318C172.318 62.3654 172.262 62.1859 172.15 62.0165C172.042 61.8471 171.881 61.7083 171.667 61.5999C171.457 61.4915 171.2 61.4373 170.895 61.4373C170.58 61.4373 170.324 61.4847 170.128 61.5795C169.931 61.6744 169.787 61.7946 169.696 61.9403C169.608 62.0859 169.564 62.2367 169.564 62.3925C169.564 62.5144 169.582 62.6262 169.62 62.7278C169.66 62.8261 169.732 62.9175 169.833 63.0022C169.938 63.0869 170.087 63.1665 170.28 63.241C170.473 63.3155 170.724 63.3883 171.032 63.4595C171.476 63.5577 171.838 63.6779 172.12 63.8202C172.404 63.9591 172.614 64.1318 172.75 64.3385C172.885 64.5417 172.953 64.789 172.953 65.0803C172.953 65.3072 172.905 65.5155 172.811 65.7052C172.716 65.8915 172.579 66.0524 172.399 66.1879C172.223 66.3234 172.009 66.4284 171.759 66.5029C171.512 66.5774 171.234 66.6147 170.926 66.6147C170.461 66.6147 170.069 66.5385 169.747 66.3861C169.428 66.2303 169.186 66.027 169.02 65.7764C168.858 65.5223 168.776 65.253 168.776 64.9685H169.381C169.401 65.253 169.491 65.4783 169.65 65.6443C169.809 65.8068 170.004 65.922 170.235 65.9898C170.468 66.0575 170.699 66.0914 170.926 66.0914C171.237 66.0914 171.498 66.0456 171.708 65.9542C171.918 65.8627 172.077 65.7425 172.186 65.5934C172.294 65.4444 172.348 65.2835 172.348 65.1108Z" stroke="white" mask="url(#path-11-outside-1_40_318)"/>
</g>
</g>
<defs>
<filter id="filter0_d_40_318" x="0" y="0.933624" width="226.565" height="82.0664" filterUnits="userSpaceOnUse" color-interpolation-filters="sRGB">
<feFlood flood-opacity="0" result="BackgroundImageFix"/>
<feColorMatrix in="SourceAlpha" type="matrix" values="0 0 0 0 0 0 0 0 0 0 0 0 0 0 0 0 0 0 127 0" result="hardAlpha"/>
<feOffset dy="1"/>
<feGaussianBlur stdDeviation="5.5"/>
<feComposite in2="hardAlpha" operator="out"/>
<feColorMatrix type="matrix" values="0 0 0 0 0 0 0 0 0 0 0 0 0 0 0 0 0 0 0.25 0"/>
<feBlend mode="normal" in2="BackgroundImageFix" result="effect1_dropShadow_40_318"/>
<feBlend mode="normal" in="SourceGraphic" in2="effect1_dropShadow_40_318" result="shape"/>
</filter>
</defs>
</svg>
