<svg width="100" height="100" viewBox="0 0 100 100" fill="none" xmlns="http://www.w3.org/2000/svg">
<g id="clarity:clock-solid" clip-path="url(#clip0_15_38)">
<path id="Vector" d="M49.9999 5.55566C41.2096 5.55566 32.6167 8.16228 25.3079 13.0459C17.999 17.9295 12.3025 24.8708 8.93857 32.992C5.57468 41.1131 4.69453 50.0494 6.40943 58.6708C8.12433 67.2922 12.3572 75.2114 18.5729 81.4271C24.7886 87.6427 32.7078 91.8757 41.3292 93.5906C49.9506 95.3055 58.8869 94.4253 67.008 91.0614C75.1292 87.6975 82.0705 82.001 86.9541 74.6921C91.8377 67.3833 94.4443 58.7904 94.4443 50.0001C94.4443 38.2127 89.7618 26.9081 81.4268 18.5731C73.0919 10.2382 61.7873 5.55566 49.9999 5.55566ZM67.2221 64.389C67.0203 64.6943 66.7601 64.9568 66.4566 65.1613C66.153 65.3658 65.812 65.5082 65.4532 65.5805C65.0944 65.6528 64.7249 65.6535 64.3658 65.5824C64.0068 65.5114 63.6653 65.3702 63.361 65.1668L46.9721 54.0557V29.8612C46.9721 29.1245 47.2648 28.418 47.7857 27.897C48.3066 27.3761 49.0132 27.0834 49.7499 27.0834C50.4866 27.0834 51.1931 27.3761 51.7141 27.897C52.235 28.418 52.5277 29.1245 52.5277 29.8612V51.1112L66.4165 60.5279C66.7241 60.7275 66.9891 60.986 67.1963 61.2886C67.4035 61.5911 67.5487 61.9317 67.6236 62.2906C67.6985 62.6496 67.7015 63.0198 67.6326 63.38C67.5637 63.7401 67.4242 64.083 67.2221 64.389ZM66.2499 22.8612C62.3414 20.5054 57.9696 19.023 53.4344 18.5157C48.8992 18.0084 44.3079 18.4882 39.9755 19.9221C35.6431 21.3561 31.6722 23.7103 28.3353 26.8232C24.9983 29.9361 22.3742 33.7341 20.6431 37.9565C18.9119 42.1789 18.1147 46.7259 18.3061 51.2854C18.4975 55.8449 19.673 60.309 21.7519 64.3715C23.8308 68.434 26.7639 71.9987 30.35 74.821C33.9361 77.6433 38.0904 79.6565 42.5277 80.7223L41.6665 85.0834C36.5775 83.8989 31.8061 81.6242 27.6818 78.4162C23.5575 75.2081 20.1785 71.1433 17.778 66.5023C15.3776 61.8612 14.0129 56.7546 13.7781 51.5348C13.5434 46.315 14.4442 41.1064 16.4184 36.2686C18.3926 31.4309 21.3931 27.0792 25.2128 23.5139C29.0325 19.9486 33.5805 17.2548 38.5426 15.6182C43.5048 13.9817 48.763 13.4416 53.9543 14.035C59.1456 14.6285 64.1462 16.3415 68.611 19.0557L66.2499 22.8612Z" fill="#330693"/>
</g>
<defs>
<clipPath id="clip0_15_38">
<rect width="100" height="100" fill="white"/>
</clipPath>
</defs>
</svg>
