<svg width="40" height="40" viewBox="0 0 40 40" fill="none" xmlns="http://www.w3.org/2000/svg">
<g id="bi:arrow-left-short">
<path id="Vector" fill-rule="evenodd" clip-rule="evenodd" d="M30 19.9997C30 20.3313 29.8683 20.6492 29.6339 20.8836C29.3994 21.1181 29.0815 21.2497 28.75 21.2497H14.2675L19.635 26.6147C19.7512 26.731 19.8434 26.8689 19.9063 27.0208C19.9692 27.1726 20.0016 27.3354 20.0016 27.4997C20.0016 27.6641 19.9692 27.8269 19.9063 27.9787C19.8434 28.1306 19.7512 28.2685 19.635 28.3847C19.5188 28.501 19.3808 28.5932 19.2289 28.6561C19.0771 28.719 18.9143 28.7513 18.75 28.7513C18.5856 28.7513 18.4229 28.719 18.271 28.6561C18.1192 28.5932 17.9812 28.501 17.865 28.3847L10.365 20.8847C10.2486 20.7686 10.1562 20.6307 10.0932 20.4788C10.0302 20.327 9.99774 20.1642 9.99774 19.9997C9.99774 19.8353 10.0302 19.6725 10.0932 19.5207C10.1562 19.3688 10.2486 19.2309 10.365 19.1147L17.865 11.6147C18.0997 11.38 18.418 11.2482 18.75 11.2482C19.0819 11.2482 19.4003 11.38 19.635 11.6147C19.8697 11.8495 20.0016 12.1678 20.0016 12.4997C20.0016 12.8317 19.8697 13.15 19.635 13.3847L14.2675 18.7497H28.75C29.0815 18.7497 29.3994 18.8814 29.6339 19.1159C29.8683 19.3503 30 19.6682 30 19.9997Z" fill="white"/>
</g>
</svg>
