<svg width="134" height="32" viewBox="0 0 134 32" fill="none" xmlns="http://www.w3.org/2000/svg">
<g id="Group 69">
<g id="Group 1">
<rect id="Rectangle 8" x="3.11542" y="0.331543" width="5.6077" height="4.05" rx="2.025" fill="url(#paint0_linear_15_68)"/>
<rect id="Rectangle 9" y="27.124" width="4.67308" height="4.05" rx="2.025" fill="url(#paint1_linear_15_68)"/>
<path id="Subtract" fill-rule="evenodd" clip-rule="evenodd" d="M14.6289 0.175537H40.0327C42.2425 0.583874 45.4413 1.76781 48.1795 4.00799L45.0174 6.56199C41.4347 4.17352 32.9297 1.63968 27.5712 10.612C25.7539 14.2466 24.5493 22.5751 34.2693 26.812C37.4885 28.0582 44.9551 28.4009 49.0674 19.8024C49.6904 17.5697 50.2512 12.3255 47.5097 9.21007L50.3055 6.10365C52.4105 8.6237 53.8402 12.0344 53.5847 16.5313C53.2731 20.8409 50.1266 29.8029 40.0327 31.1736H9.64249C9.57401 31.1736 9.50589 31.1738 9.43817 31.174C8.20058 31.1772 7.10063 31.18 6.45682 30.1066C5.3529 28.266 8.79505 26.9679 10.9413 26.9679H12.1821C14.0728 26.9679 16.1773 26.6771 16.4013 24.7997C16.5929 23.1946 14.2447 22.4506 12.6281 22.4506H12.2144C10.9477 22.4506 9.4423 22.2109 9.06407 21.002C9.04 20.9251 9.02022 20.8459 9.00535 20.7646C8.6463 18.8017 11.3841 18.089 13.3796 18.089H16.3768C18.2756 18.089 20.3728 17.8269 20.5445 15.936C20.6845 14.3952 18.4755 13.5717 16.9284 13.5717H8.799C7.24376 13.5717 5.64901 13.3612 5.33416 11.8382C5.00849 10.2628 7.26466 9.36593 8.87336 9.36593H13.6659C15.1887 9.36593 16.8977 8.8217 17.2228 7.334C17.3338 6.82608 17.3035 6.29572 17.0227 5.8018C16.5767 5.01739 15.5668 4.84862 14.6645 4.84862C13.0174 4.84862 10.9182 4.46464 10.8449 2.81914C10.8371 2.64406 10.8496 2.46019 10.8866 2.26808C11.187 0.709585 13.0417 0.175537 14.6289 0.175537Z" fill="url(#paint2_linear_15_68)"/>
<path id="Vector 2" d="M37.0731 19.6469L34.3373 16.1006C33.3772 14.856 32.4309 12.4683 33.8756 11.8488C35.2692 11.2512 36.3098 12.5138 37.2093 13.7346L38.0077 14.8181C38.3815 15.0673 38.7865 14.9219 38.9423 14.8181L54.8308 0.0200019C55.4539 -0.104614 55.6096 0.383464 55.6096 0.64308L39.2539 19.6469C38.1323 20.5193 37.3327 20.0104 37.0731 19.6469Z" fill="url(#paint3_linear_15_68)"/>
</g>
<g id="PontoGo">
<path d="M68.44 16.9076H64.8895V15.4746H68.44C69.1275 15.4746 69.6843 15.3651 70.1102 15.1461C70.5361 14.927 70.8465 14.6228 71.0412 14.2333C71.242 13.8439 71.3424 13.3997 71.3424 12.9008C71.3424 12.4444 71.242 12.0155 71.0412 11.6139C70.8465 11.2123 70.5361 10.8898 70.1102 10.6464C69.6843 10.3969 69.1275 10.2722 68.44 10.2722H65.3002V22.1192H63.5387V8.8301H68.44C69.4439 8.8301 70.2928 9.00351 70.9864 9.35034C71.6801 9.69717 72.2064 10.1779 72.5654 10.7924C72.9244 11.4009 73.1039 12.0976 73.1039 12.8825C73.1039 13.7344 72.9244 14.4615 72.5654 15.0639C72.2064 15.6663 71.6801 16.1257 70.9864 16.4421C70.2928 16.7524 69.4439 16.9076 68.44 16.9076Z" fill="#330693"/>
<path d="M74.5004 17.2909V17.081C74.5004 16.3691 74.6038 15.7089 74.8107 15.1004C75.0176 14.4859 75.3157 13.9534 75.7051 13.5032C76.0946 13.0468 76.5661 12.6939 77.1198 12.4444C77.6736 12.1889 78.2942 12.0611 78.9818 12.0611C79.6754 12.0611 80.2991 12.1889 80.8528 12.4444C81.4126 12.6939 81.8872 13.0468 82.2767 13.5032C82.6722 13.9534 82.9734 14.4859 83.1802 15.1004C83.3871 15.7089 83.4906 16.3691 83.4906 17.081V17.2909C83.4906 18.0028 83.3871 18.663 83.1802 19.2715C82.9734 19.88 82.6722 20.4124 82.2767 20.8688C81.8872 21.319 81.4157 21.6719 80.862 21.9275C80.3143 22.177 79.6937 22.3017 79 22.3017C78.3064 22.3017 77.6827 22.177 77.129 21.9275C76.5753 21.6719 76.1006 21.319 75.7051 20.8688C75.3157 20.4124 75.0176 19.88 74.8107 19.2715C74.6038 18.663 74.5004 18.0028 74.5004 17.2909ZM76.1889 17.081V17.2909C76.1889 17.7838 76.2467 18.2493 76.3623 18.6874C76.4779 19.1194 76.6513 19.5027 76.8825 19.8374C77.1198 20.1721 77.415 20.4367 77.7679 20.6315C78.1208 20.8201 78.5315 20.9144 79 20.9144C79.4625 20.9144 79.8671 20.8201 80.2139 20.6315C80.5668 20.4367 80.8589 20.1721 81.0901 19.8374C81.3214 19.5027 81.4948 19.1194 81.6104 18.6874C81.7321 18.2493 81.7929 17.7838 81.7929 17.2909V17.081C81.7929 16.5942 81.7321 16.1348 81.6104 15.7028C81.4948 15.2647 81.3183 14.8783 81.081 14.5437C80.8498 14.2029 80.5577 13.9352 80.2048 13.7405C79.858 13.5458 79.4503 13.4484 78.9818 13.4484C78.5193 13.4484 78.1117 13.5458 77.7587 13.7405C77.4119 13.9352 77.1198 14.2029 76.8825 14.5437C76.6513 14.8783 76.4779 15.2647 76.3623 15.7028C76.2467 16.1348 76.1889 16.5942 76.1889 17.081Z" fill="#330693"/>
<path d="M87.2966 14.352V22.1192H85.6081V12.2436H87.2053L87.2966 14.352ZM86.895 16.8072L86.1922 16.7798C86.1983 16.1044 86.2987 15.4807 86.4934 14.9088C86.6881 14.3307 86.9619 13.8287 87.3148 13.4028C87.6677 12.9768 88.0876 12.6483 88.5744 12.4171C89.0672 12.1797 89.6118 12.0611 90.2081 12.0611C90.6949 12.0611 91.133 12.128 91.5224 12.2619C91.9118 12.3897 92.2435 12.5966 92.5173 12.8825C92.7972 13.1685 93.0101 13.5397 93.1562 13.996C93.3022 14.4463 93.3752 14.997 93.3752 15.648V22.1192H91.6776V15.6298C91.6776 15.1126 91.6015 14.6988 91.4494 14.3885C91.2973 14.0721 91.0752 13.8439 90.7831 13.704C90.4911 13.5579 90.1321 13.4849 89.7061 13.4849C89.2863 13.4849 88.9029 13.5732 88.5561 13.7496C88.2154 13.9261 87.9203 14.1695 87.6708 14.4798C87.4274 14.7901 87.2357 15.1461 87.0958 15.5477C86.9619 15.9432 86.895 16.363 86.895 16.8072Z" fill="#330693"/>
<path d="M100.075 12.2436V13.5397H94.7352V12.2436H100.075ZM96.5423 9.84321H98.2309V19.6731C98.2309 20.0078 98.2826 20.2603 98.386 20.4307C98.4895 20.601 98.6233 20.7136 98.7876 20.7684C98.9519 20.8231 99.1284 20.8505 99.317 20.8505C99.4569 20.8505 99.603 20.8383 99.7551 20.814C99.9133 20.7836 100.032 20.7592 100.111 20.741L100.12 22.1192C99.9863 22.1618 99.8098 22.2013 99.5908 22.2378C99.3778 22.2804 99.1192 22.3017 98.815 22.3017C98.4012 22.3017 98.0209 22.2196 97.6741 22.0553C97.3273 21.891 97.0504 21.6172 96.8435 21.2338C96.6427 20.8444 96.5423 20.3211 96.5423 19.664V9.84321Z" fill="#330693"/>
<path d="M101.425 17.2909V17.081C101.425 16.3691 101.529 15.7089 101.736 15.1004C101.943 14.4859 102.241 13.9534 102.63 13.5032C103.02 13.0468 103.491 12.6939 104.045 12.4444C104.599 12.1889 105.219 12.0611 105.907 12.0611C106.6 12.0611 107.224 12.1889 107.778 12.4444C108.338 12.6939 108.812 13.0468 109.202 13.5032C109.597 13.9534 109.898 14.4859 110.105 15.1004C110.312 15.7089 110.416 16.3691 110.416 17.081V17.2909C110.416 18.0028 110.312 18.663 110.105 19.2715C109.898 19.88 109.597 20.4124 109.202 20.8688C108.812 21.319 108.341 21.6719 107.787 21.9275C107.239 22.177 106.619 22.3017 105.925 22.3017C105.231 22.3017 104.608 22.177 104.054 21.9275C103.5 21.6719 103.026 21.319 102.63 20.8688C102.241 20.4124 101.943 19.88 101.736 19.2715C101.529 18.663 101.425 18.0028 101.425 17.2909ZM103.114 17.081V17.2909C103.114 17.7838 103.172 18.2493 103.287 18.6874C103.403 19.1194 103.576 19.5027 103.808 19.8374C104.045 20.1721 104.34 20.4367 104.693 20.6315C105.046 20.8201 105.456 20.9144 105.925 20.9144C106.387 20.9144 106.792 20.8201 107.139 20.6315C107.492 20.4367 107.784 20.1721 108.015 19.8374C108.246 19.5027 108.42 19.1194 108.535 18.6874C108.657 18.2493 108.718 17.7838 108.718 17.2909V17.081C108.718 16.5942 108.657 16.1348 108.535 15.7028C108.42 15.2647 108.243 14.8783 108.006 14.5437C107.775 14.2029 107.483 13.9352 107.13 13.7405C106.783 13.5458 106.375 13.4484 105.907 13.4484C105.444 13.4484 105.037 13.5458 104.684 13.7405C104.337 13.9352 104.045 14.2029 103.808 14.5437C103.576 14.8783 103.403 15.2647 103.287 15.7028C103.172 16.1348 103.114 16.5942 103.114 17.081Z" fill="#330693"/>
<path d="M123.13 15.0183V20.4763C122.904 20.7258 122.558 20.9935 122.089 21.2795C121.627 21.5594 121.043 21.7997 120.337 22.0005C119.631 22.2013 118.8 22.3017 117.845 22.3017C116.963 22.3017 116.163 22.1618 115.445 21.8819C114.727 21.5959 114.109 21.1791 113.592 20.6315C113.081 20.0777 112.685 19.4023 112.405 18.6052C112.131 17.802 111.995 16.8833 111.995 15.8488V15.1095C111.995 14.0751 112.134 13.1563 112.414 12.3532C112.694 11.55 113.087 10.8746 113.592 10.3269C114.103 9.77323 114.702 9.35338 115.39 9.0674C116.083 8.78142 116.844 8.63843 117.672 8.63843C118.895 8.63843 119.889 8.83314 120.656 9.22256C121.423 9.6059 122.004 10.1383 122.399 10.8198C122.795 11.4952 123.035 12.2771 123.12 13.1655H120.045C119.984 12.7274 119.868 12.3562 119.698 12.052C119.534 11.7416 119.296 11.5074 118.986 11.3492C118.676 11.1849 118.274 11.1027 117.781 11.1027C117.398 11.1027 117.048 11.1849 116.732 11.3492C116.421 11.5135 116.157 11.7629 115.937 12.0976C115.718 12.4262 115.548 12.8399 115.426 13.3389C115.311 13.8378 115.253 14.422 115.253 15.0913V15.8488C115.253 16.5121 115.308 17.0932 115.417 17.5921C115.533 18.0911 115.703 18.5079 115.928 18.8425C116.16 19.1711 116.452 19.4206 116.805 19.591C117.164 19.7552 117.586 19.8374 118.073 19.8374C118.414 19.8374 118.706 19.81 118.949 19.7552C119.193 19.6944 119.394 19.6214 119.552 19.5362C119.716 19.4449 119.841 19.3597 119.926 19.2806V17.2179H117.699V15.0183H123.13Z" fill="#330693"/>
<path d="M124.471 17.2818V17.0901C124.471 16.366 124.575 15.6998 124.782 15.0913C124.989 14.4767 125.293 13.9443 125.694 13.4941C126.096 13.0438 126.592 12.6939 127.182 12.4444C127.772 12.1889 128.454 12.0611 129.227 12.0611C130.005 12.0611 130.69 12.1889 131.28 12.4444C131.876 12.6939 132.375 13.0438 132.777 13.4941C133.179 13.9443 133.483 14.4767 133.69 15.0913C133.897 15.6998 134 16.366 134 17.0901V17.2818C134 17.9998 133.897 18.6661 133.69 19.2806C133.483 19.8891 133.179 20.4215 132.777 20.8779C132.375 21.3282 131.879 21.678 131.289 21.9275C130.699 22.177 130.018 22.3017 129.245 22.3017C128.472 22.3017 127.787 22.177 127.191 21.9275C126.595 21.678 126.096 21.3282 125.694 20.8779C125.293 20.4215 124.989 19.8891 124.782 19.2806C124.575 18.6661 124.471 17.9998 124.471 17.2818ZM127.547 17.0901V17.2818C127.547 17.653 127.575 17.9998 127.629 18.3223C127.684 18.6448 127.775 18.9277 127.903 19.1711C128.031 19.4084 128.204 19.594 128.423 19.7279C128.642 19.8617 128.916 19.9287 129.245 19.9287C129.567 19.9287 129.835 19.8617 130.048 19.7279C130.267 19.594 130.44 19.4084 130.568 19.1711C130.696 18.9277 130.787 18.6448 130.842 18.3223C130.897 17.9998 130.924 17.653 130.924 17.2818V17.0901C130.924 16.7311 130.897 16.3934 130.842 16.077C130.787 15.7545 130.696 15.4716 130.568 15.2282C130.44 14.9787 130.267 14.784 130.048 14.6441C129.829 14.5041 129.555 14.4341 129.227 14.4341C128.904 14.4341 128.633 14.5041 128.414 14.6441C128.201 14.784 128.031 14.9787 127.903 15.2282C127.775 15.4716 127.684 15.7545 127.629 16.077C127.575 16.3934 127.547 16.7311 127.547 17.0901Z" fill="#330693"/>
</g>
</g>
<defs>
<linearGradient id="paint0_linear_15_68" x1="8.71969" y1="2.34637" x2="3.11664" y2="2.34637" gradientUnits="userSpaceOnUse">
<stop stop-color="#330693"/>
<stop offset="0.198527" stop-color="#390C9A"/>
<stop offset="1" stop-color="#8A53FF"/>
</linearGradient>
<linearGradient id="paint1_linear_15_68" x1="4.67023" y1="29.1388" x2="0.00101759" y2="29.1388" gradientUnits="userSpaceOnUse">
<stop stop-color="#330693"/>
<stop offset="0.198527" stop-color="#390C9A"/>
<stop offset="1" stop-color="#8A53FF"/>
</linearGradient>
<linearGradient id="paint2_linear_15_68" x1="53.5847" y1="15.597" x2="5.31301" y2="15.5971" gradientUnits="userSpaceOnUse">
<stop stop-color="#330693"/>
<stop offset="0.198527" stop-color="#390C9A"/>
<stop offset="1" stop-color="#8A53FF"/>
</linearGradient>
<linearGradient id="paint3_linear_15_68" x1="55.1423" y1="0.0200033" x2="32.0885" y2="21.9835" gradientUnits="userSpaceOnUse">
<stop stop-color="#330693"/>
<stop offset="0.275577" stop-color="#340794"/>
<stop offset="0.43442" stop-color="#390C9A"/>
<stop offset="1" stop-color="#8A53FF"/>
</linearGradient>
</defs>
</svg>
