<svg width="164" height="39" viewBox="0 0 164 39" fill="none" xmlns="http://www.w3.org/2000/svg">
<g id="Group 3">
<g id="Group 1">
<rect id="Rectangle 8" x="3.81287" y="0.405762" width="6.86315" height="4.95672" rx="2.47836" fill="white"/>
<rect id="Rectangle 9" y="33.1964" width="5.71929" height="4.95672" rx="2.47836" fill="white"/>
<path id="Subtract" fill-rule="evenodd" clip-rule="evenodd" d="M17.904 0.215149H48.9953C51.6999 0.714908 55.6148 2.16392 58.966 4.90567L55.0959 8.03153C50.7111 5.10833 40.302 2.0072 33.7438 12.9882C31.5197 17.4366 30.0454 27.6296 41.9415 32.8151C45.8814 34.3403 55.0196 34.7597 60.0526 24.2362C60.8152 21.5036 61.5015 15.0853 58.1462 11.2725L61.5679 7.4705C64.1443 10.5547 65.8939 14.729 65.5812 20.2327C65.1999 25.5071 61.349 36.4755 48.9953 38.1531H11.8013C11.7175 38.1531 11.6341 38.1533 11.5512 38.1536C10.0365 38.1575 8.69033 38.1609 7.90239 36.8472C6.55132 34.5945 10.7641 33.0058 13.3909 33.0058H14.9095C17.2234 33.0058 19.7991 32.6498 20.0733 30.3522C20.3077 28.3877 17.4338 27.4771 15.4553 27.4771H14.9489C13.3987 27.4771 11.5563 27.1838 11.0934 25.7043C11.0639 25.6101 11.0397 25.5132 11.0215 25.4137C10.5821 23.0113 13.9327 22.1391 16.375 22.1391H20.0433C22.3671 22.1391 24.9338 21.8183 25.144 19.504C25.3153 17.6183 22.6118 16.6105 20.7183 16.6105H10.7689C8.86551 16.6105 6.91372 16.3528 6.52839 14.4888C6.12981 12.5607 8.89109 11.4631 10.8599 11.4631H17.151C18.7423 11.4631 20.4515 10.8923 20.964 9.38583C21.2159 8.64534 21.2538 7.83986 20.8337 7.10103C20.288 6.141 19.0519 5.93444 17.9476 5.93444C15.9317 5.93444 13.3625 5.46449 13.2729 3.4506C13.2633 3.23633 13.2786 3.01129 13.3239 2.77617C13.6916 0.86876 15.9615 0.215149 17.904 0.215149Z" fill="white"/>
<path id="Vector 2" d="M45.3731 24.0455L41.8256 19.4469C40.7807 18.0924 39.6447 16.1274 40.8491 14.9125C41.0043 14.756 41.1805 14.6345 41.3699 14.5425C42.8544 13.8216 44.3734 15.2266 45.3524 16.5552L46.5169 18.1356C46.9745 18.4406 47.4702 18.2627 47.6608 18.1356L67.1064 0.02448C67.869 -0.128035 68.0596 0.469314 68.0596 0.787052L48.0421 24.0455C46.6695 25.1131 45.6908 24.4903 45.3731 24.0455Z" fill="white"/>
</g>
<g id="PontoGo">
<path d="M83.7623 20.693H79.417V18.9392H83.7623C84.6039 18.9392 85.2853 18.8052 85.8066 18.5371C86.3278 18.269 86.7076 17.8966 86.9459 17.42C87.1917 16.9434 87.3146 16.3998 87.3146 15.7891C87.3146 15.2306 87.1917 14.7056 86.9459 14.2141C86.7076 13.7226 86.3278 13.3279 85.8066 13.03C85.2853 12.7247 84.6039 12.572 83.7623 12.572H79.9197V27.0713H77.7638V10.8071H83.7623C84.9911 10.8071 86.03 11.0193 86.8789 11.4438C87.7279 11.8683 88.372 12.4566 88.8114 13.2087C89.2508 13.9534 89.4705 14.8061 89.4705 15.7668C89.4705 16.8094 89.2508 17.6993 88.8114 18.4365C88.372 19.1738 87.7279 19.736 86.8789 20.1233C86.03 20.5031 84.9911 20.693 83.7623 20.693Z" fill="white"/>
<path d="M91.1796 21.1621V20.9052C91.1796 20.0339 91.3062 19.2259 91.5594 18.4812C91.8126 17.7291 92.1775 17.0775 92.6541 16.5264C93.1307 15.9679 93.7078 15.5359 94.3855 15.2306C95.0632 14.9178 95.8228 14.7614 96.6643 14.7614C97.5132 14.7614 98.2765 14.9178 98.9542 15.2306C99.6393 15.5359 100.22 15.9679 100.697 16.5264C101.181 17.0775 101.55 17.7291 101.803 18.4812C102.056 19.2259 102.182 20.0339 102.182 20.9052V21.1621C102.182 22.0334 102.056 22.8414 101.803 23.5861C101.55 24.3308 101.181 24.9824 100.697 25.541C100.22 26.0921 99.6431 26.524 98.9654 26.8368C98.2952 27.1421 97.5356 27.2947 96.6866 27.2947C95.8377 27.2947 95.0743 27.1421 94.3967 26.8368C93.719 26.524 93.1381 26.0921 92.6541 25.541C92.1775 24.9824 91.8126 24.3308 91.5594 23.5861C91.3062 22.8414 91.1796 22.0334 91.1796 21.1621ZM93.2461 20.9052V21.1621C93.2461 21.7653 93.3168 22.335 93.4583 22.8712C93.5998 23.4 93.8121 23.8691 94.0951 24.2787C94.3855 24.6883 94.7467 25.0122 95.1786 25.2505C95.6105 25.4814 96.1132 25.5968 96.6866 25.5968C97.2526 25.5968 97.7478 25.4814 98.1723 25.2505C98.6042 25.0122 98.9617 24.6883 99.2447 24.2787C99.5276 23.8691 99.7399 23.4 99.8814 22.8712C100.03 22.335 100.105 21.7653 100.105 21.1621V20.9052C100.105 20.3095 100.03 19.7472 99.8814 19.2185C99.7399 18.6823 99.5239 18.2094 99.2335 17.7998C98.9505 17.3828 98.593 17.0551 98.1611 16.8168C97.7366 16.5785 97.2377 16.4594 96.6643 16.4594C96.0983 16.4594 95.5994 16.5785 95.1674 16.8168C94.7429 17.0551 94.3855 17.3828 94.0951 17.7998C93.8121 18.2094 93.5998 18.6823 93.4583 19.2185C93.3168 19.7472 93.2461 20.3095 93.2461 20.9052Z" fill="white"/>
<path d="M106.841 17.5652V27.0713H104.774V14.9849H106.729L106.841 17.5652ZM106.349 20.5701L105.489 20.5366C105.496 19.71 105.619 18.9467 105.858 18.2466C106.096 17.5392 106.431 16.9248 106.863 16.4035C107.295 15.8822 107.809 15.4801 108.404 15.1971C109.008 14.9067 109.674 14.7614 110.404 14.7614C111 14.7614 111.536 14.8434 112.013 15.0072C112.489 15.1636 112.895 15.4168 113.23 15.7668C113.573 16.1168 113.833 16.5711 114.012 17.1296C114.191 17.6807 114.28 18.3546 114.28 19.1515V27.0713H112.202V19.1291C112.202 18.4961 112.109 17.9897 111.923 17.6099C111.737 17.2227 111.465 16.9434 111.108 16.7721C110.75 16.5934 110.311 16.504 109.79 16.504C109.276 16.504 108.807 16.612 108.382 16.828C107.965 17.044 107.604 17.3418 107.299 17.7216C107.001 18.1014 106.766 18.5371 106.595 19.0286C106.431 19.5126 106.349 20.0265 106.349 20.5701Z" fill="white"/>
<path d="M122.479 14.9849V16.5711H115.945V14.9849H122.479ZM118.156 12.047H120.223V24.0776C120.223 24.4872 120.286 24.7963 120.413 25.0048C120.539 25.2133 120.703 25.3511 120.904 25.4181C121.105 25.4851 121.321 25.5186 121.552 25.5186C121.723 25.5186 121.902 25.5037 122.088 25.474C122.282 25.4367 122.427 25.4069 122.524 25.3846L122.535 27.0713C122.371 27.1235 122.155 27.1719 121.887 27.2165C121.627 27.2687 121.31 27.2947 120.938 27.2947C120.431 27.2947 119.966 27.1942 119.541 26.9931C119.117 26.7921 118.778 26.457 118.525 25.9878C118.279 25.5112 118.156 24.8707 118.156 24.0665V12.047Z" fill="white"/>
<path d="M124.133 21.1621V20.9052C124.133 20.0339 124.259 19.2259 124.512 18.4812C124.766 17.7291 125.13 17.0775 125.607 16.5264C126.084 15.9679 126.661 15.5359 127.338 15.2306C128.016 14.9178 128.776 14.7614 129.617 14.7614C130.466 14.7614 131.23 14.9178 131.907 15.2306C132.592 15.5359 133.173 15.9679 133.65 16.5264C134.134 17.0775 134.502 17.7291 134.756 18.4812C135.009 19.2259 135.135 20.0339 135.135 20.9052V21.1621C135.135 22.0334 135.009 22.8414 134.756 23.5861C134.502 24.3308 134.134 24.9824 133.65 25.541C133.173 26.0921 132.596 26.524 131.918 26.8368C131.248 27.1421 130.489 27.2947 129.64 27.2947C128.791 27.2947 128.027 27.1421 127.35 26.8368C126.672 26.524 126.091 26.0921 125.607 25.541C125.13 24.9824 124.766 24.3308 124.512 23.5861C124.259 22.8414 124.133 22.0334 124.133 21.1621ZM126.199 20.9052V21.1621C126.199 21.7653 126.27 22.335 126.411 22.8712C126.553 23.4 126.765 23.8691 127.048 24.2787C127.338 24.6883 127.7 25.0122 128.132 25.2505C128.563 25.4814 129.066 25.5968 129.64 25.5968C130.206 25.5968 130.701 25.4814 131.125 25.2505C131.557 25.0122 131.915 24.6883 132.198 24.2787C132.481 23.8691 132.693 23.4 132.834 22.8712C132.983 22.335 133.058 21.7653 133.058 21.1621V20.9052C133.058 20.3095 132.983 19.7472 132.834 19.2185C132.693 18.6823 132.477 18.2094 132.186 17.7998C131.903 17.3828 131.546 17.0551 131.114 16.8168C130.69 16.5785 130.191 16.4594 129.617 16.4594C129.051 16.4594 128.552 16.5785 128.12 16.8168C127.696 17.0551 127.338 17.3828 127.048 17.7998C126.765 18.2094 126.553 18.6823 126.411 19.2185C126.27 19.7472 126.199 20.3095 126.199 20.9052Z" fill="white"/>
<path d="M150.696 18.3807V25.0606C150.42 25.366 149.996 25.6936 149.423 26.0436C148.857 26.3862 148.142 26.6804 147.278 26.9261C146.414 27.1719 145.397 27.2947 144.228 27.2947C143.148 27.2947 142.169 27.1235 141.29 26.7809C140.412 26.4309 139.656 25.9208 139.023 25.2505C138.397 24.5729 137.913 23.7462 137.571 22.7707C137.236 21.7877 137.068 20.6632 137.068 19.3972V18.4924C137.068 17.2264 137.239 16.1019 137.582 15.1189C137.924 14.1359 138.405 13.3093 139.023 12.6391C139.648 11.9614 140.382 11.4475 141.223 11.0975C142.072 10.7475 143.003 10.5725 144.016 10.5725C145.513 10.5725 146.73 10.8108 147.669 11.2874C148.607 11.7566 149.318 12.4082 149.802 13.2423C150.286 14.0689 150.581 15.0258 150.685 16.1131H146.92C146.846 15.5769 146.704 15.1226 146.496 14.7503C146.295 14.3705 146.004 14.0838 145.625 13.8901C145.245 13.6891 144.753 13.5885 144.15 13.5885C143.681 13.5885 143.253 13.6891 142.865 13.8901C142.486 14.0912 142.162 14.3965 141.894 14.8061C141.626 15.2083 141.417 15.7147 141.268 16.3253C141.127 16.936 141.056 17.6509 141.056 18.47V19.3972C141.056 20.2089 141.123 20.9201 141.257 21.5308C141.398 22.1414 141.607 22.6515 141.882 23.0611C142.165 23.4633 142.523 23.7686 142.955 23.9771C143.394 24.1782 143.912 24.2787 144.507 24.2787C144.925 24.2787 145.282 24.2452 145.58 24.1782C145.878 24.1037 146.123 24.0143 146.317 23.9101C146.518 23.7984 146.671 23.6941 146.775 23.5973V21.0728H144.05V18.3807H150.696Z" fill="white"/>
<path d="M152.338 21.151V20.9164C152.338 20.0302 152.465 19.2147 152.718 18.47C152.971 17.7179 153.343 17.0663 153.835 16.5152C154.326 15.9641 154.933 15.5359 155.656 15.2306C156.378 14.9178 157.212 14.7614 158.158 14.7614C159.111 14.7614 159.949 14.9178 160.671 15.2306C161.401 15.5359 162.012 15.9641 162.503 16.5152C162.995 17.0663 163.367 17.7179 163.62 18.47C163.873 19.2147 164 20.0302 164 20.9164V21.151C164 22.0297 163.873 22.8452 163.62 23.5973C163.367 24.342 162.995 24.9936 162.503 25.5521C162.012 26.1032 161.405 26.5314 160.682 26.8368C159.96 27.1421 159.126 27.2947 158.18 27.2947C157.234 27.2947 156.397 27.1421 155.667 26.8368C154.937 26.5314 154.326 26.1032 153.835 25.5521C153.343 24.9936 152.971 24.342 152.718 23.5973C152.465 22.8452 152.338 22.0297 152.338 21.151ZM156.102 20.9164V21.151C156.102 21.6052 156.136 22.0297 156.203 22.4244C156.27 22.8191 156.382 23.1654 156.538 23.4633C156.695 23.7537 156.907 23.9808 157.175 24.1447C157.443 24.3085 157.778 24.3904 158.18 24.3904C158.575 24.3904 158.903 24.3085 159.163 24.1447C159.431 23.9808 159.644 23.7537 159.8 23.4633C159.956 23.1654 160.068 22.8191 160.135 22.4244C160.202 22.0297 160.236 21.6052 160.236 21.151V20.9164C160.236 20.477 160.202 20.0637 160.135 19.6765C160.068 19.2818 159.956 18.9355 159.8 18.6376C159.644 18.3323 159.431 18.094 159.163 17.9227C158.895 17.7514 158.56 17.6658 158.158 17.6658C157.763 17.6658 157.432 17.7514 157.164 17.9227C156.903 18.094 156.695 18.3323 156.538 18.6376C156.382 18.9355 156.27 19.2818 156.203 19.6765C156.136 20.0637 156.102 20.477 156.102 20.9164Z" fill="white"/>
</g>
</g>
</svg>
