<svg width="40" height="40" viewBox="0 0 40 40" fill="none" xmlns="http://www.w3.org/2000/svg">
<g id="bi:arrow-left-short">
<path id="Vector" fill-rule="evenodd" clip-rule="evenodd" d="M10 19.9998C10 19.6682 10.1317 19.3503 10.3661 19.1159C10.6005 18.8815 10.9185 18.7498 11.25 18.7498L25.7325 18.7498L20.365 13.3848C20.2488 13.2685 20.1566 13.1306 20.0937 12.9787C20.0308 12.8269 19.9984 12.6641 19.9984 12.4998C19.9984 12.3354 20.0308 12.1727 20.0937 12.0208C20.1566 11.869 20.2488 11.731 20.365 11.6148C20.4812 11.4985 20.6192 11.4064 20.771 11.3435C20.9229 11.2806 21.0856 11.2482 21.25 11.2482C21.4144 11.2482 21.5771 11.2806 21.729 11.3435C21.8808 11.4064 22.0188 11.4985 22.135 11.6148L29.635 19.1148C29.7514 19.2309 29.8438 19.3688 29.9068 19.5207C29.9698 19.6725 30.0022 19.8353 30.0022 19.9998C30.0022 20.1642 29.9698 20.327 29.9068 20.4788C29.8438 20.6307 29.7514 20.7686 29.635 20.8848L22.135 28.3848C21.9003 28.6195 21.5819 28.7513 21.25 28.7513C20.9181 28.7513 20.5997 28.6195 20.365 28.3848C20.1303 28.15 19.9984 27.8317 19.9984 27.4998C19.9984 27.1678 20.1303 26.8495 20.365 26.6148L25.7325 21.2498L11.25 21.2498C10.9185 21.2498 10.6005 21.1181 10.3661 20.8836C10.1317 20.6492 10 20.3313 10 19.9998Z" fill="white"/>
</g>
</svg>
