<svg width="24" height="25" viewBox="0 0 24 25" fill="none" xmlns="http://www.w3.org/2000/svg">
<g id="ant-design:logout-outlined">
<path id="Vector" d="M20.3437 17.3628H18.6961C18.5836 17.3628 18.4781 17.412 18.4078 17.4988C18.2437 17.698 18.0679 17.8902 17.8828 18.073C17.1255 18.831 16.2285 19.4351 15.2414 19.8519C14.2187 20.2838 13.1195 20.5054 12.0093 20.5035C10.8867 20.5035 9.79919 20.2831 8.77732 19.8519C7.79019 19.4351 6.89319 18.831 6.13591 18.073C5.37727 17.3175 4.77236 16.4221 4.35466 15.4363C3.92107 14.4144 3.7031 13.3292 3.7031 12.2066C3.7031 11.0839 3.92341 9.99877 4.35466 8.97689C4.77185 7.99017 5.37185 7.10189 6.13591 6.34017C6.89997 5.57845 7.78825 4.97845 8.77732 4.56127C9.79919 4.13002 10.8867 3.9097 12.0093 3.9097C13.132 3.9097 14.2195 4.12767 15.2414 4.56127C16.2304 4.97845 17.1187 5.57845 17.8828 6.34017C18.0679 6.52533 18.2414 6.71752 18.4078 6.91439C18.4781 7.00111 18.5859 7.05033 18.6961 7.05033H20.3437C20.4914 7.05033 20.5828 6.88627 20.5008 6.76205C18.7031 3.9683 15.5578 2.11908 11.9836 2.12845C6.36794 2.14252 1.8656 6.70111 1.92185 12.3097C1.9781 17.8292 6.47341 22.2847 12.0093 22.2847C15.5742 22.2847 18.7054 20.4378 20.5008 17.6511C20.5804 17.5269 20.4914 17.3628 20.3437 17.3628ZM22.4273 12.0589L19.1015 9.43392C18.9773 9.33549 18.7968 9.42455 18.7968 9.58158V11.3628H11.4375C11.3343 11.3628 11.25 11.4472 11.25 11.5503V12.8628C11.25 12.966 11.3343 13.0503 11.4375 13.0503H18.7968V14.8316C18.7968 14.9886 18.9797 15.0777 19.1015 14.9792L22.4273 12.3542C22.4497 12.3367 22.4678 12.3143 22.4803 12.2887C22.4928 12.2631 22.4993 12.235 22.4993 12.2066C22.4993 12.1781 22.4928 12.15 22.4803 12.1245C22.4678 12.0989 22.4497 12.0765 22.4273 12.0589Z" fill="#20292E"/>
</g>
</svg>
